<svg version="1.1" id="Layer_1" xmlns="http://www.w3.org/2000/svg" xmlns:xlink="http://www.w3.org/1999/xlink" x="0px" y="0px"
	 width="100%" viewBox="0 0 950 884" enable-background="new 0 0 950 884" xml:space="preserve">
<path fill="#282828" opacity="1.000000" stroke="none" 
	d="
M951.000000,4.000000 
	C951.000000,297.576721 951.000000,591.153442 951.000000,885.000000 
	C788.639893,885.000000 626.279663,885.000000 463.763428,884.823975 
	C466.754578,883.131531 469.991821,881.774719 473.027374,880.060730 
	C477.378906,877.603638 478.266907,874.674866 476.050751,871.076843 
	C473.705353,867.269043 471.012695,867.691528 467.156311,869.350952 
	C461.436798,871.812012 455.342560,874.022705 449.215454,874.776855 
	C438.897644,876.046753 434.334503,871.598694 434.025482,861.236816 
	C433.802277,853.752441 433.938568,846.256165 433.979858,838.765503 
	C434.025299,830.524902 434.609772,829.968872 442.784332,829.933533 
	C450.607117,829.899719 458.442596,830.103516 466.243225,829.672668 
	C468.060547,829.572266 470.577606,827.657532 471.264191,825.965454 
	C471.856110,824.506653 470.830719,821.620667 469.541779,820.393616 
	C468.333405,819.243347 465.850586,819.156189 463.913300,819.096313 
	C456.595032,818.869934 449.269348,818.896118 441.948822,818.726807 
	C437.101929,818.614746 434.695282,816.262207 434.925415,811.164124 
	C435.150330,806.180847 434.979553,801.178406 434.941376,796.184753 
	C434.911285,792.244934 433.737000,789.189819 429.024353,789.301208 
	C424.510864,789.407898 423.168976,792.234192 423.013885,796.262268 
	C422.815643,801.412354 422.240967,806.549744 422.107758,811.699890 
	C421.984192,816.476135 419.510773,818.177002 415.075714,817.935730 
	C412.421021,817.791260 409.745209,817.561157 407.105042,817.745056 
	C403.975861,817.963013 401.137421,819.649048 401.714813,822.941101 
	C402.069519,824.963379 404.411987,827.233337 406.432526,828.202393 
	C408.528229,829.207520 411.309235,828.874023 413.796112,828.956421 
	C421.137238,829.199646 422.099945,830.075684 421.927063,837.553711 
	C421.761810,844.701660 421.241394,851.841614 421.089935,858.989624 
	C420.866486,869.536865 423.783417,878.733337 433.000000,885.000000 
	C289.045990,885.000000 145.091980,885.000000 1.000000,885.000000 
	C1.000000,591.639832 1.000000,298.279602 1.468096,4.485713 
	C5.100414,4.072131 8.264637,4.109769 11.428860,4.109839 
	C145.334961,4.112800 279.241058,4.109896 413.147156,4.125724 
	C416.807068,4.126157 420.466980,4.323859 423.968201,4.749581 
	C423.223053,7.637561 422.322845,10.181549 422.124268,12.779171 
	C421.833160,16.587626 421.911713,20.440102 422.074310,24.263542 
	C422.283875,29.191332 420.035614,31.300362 415.182465,31.063177 
	C413.030731,30.958015 410.548370,30.582579 408.782288,31.464138 
	C406.734467,32.486332 403.912598,34.819031 403.988068,36.465458 
	C404.071106,38.277367 406.782532,40.689270 408.868774,41.496929 
	C411.199860,42.399395 414.147461,42.079830 416.768585,41.781296 
	C421.439362,41.249313 423.103119,43.283230 423.030090,47.730843 
	C422.918091,54.556564 422.885376,61.392990 423.135529,68.213264 
	C423.631042,81.724785 428.605438,89.236908 439.566589,92.001083 
	C452.002716,95.137192 462.834778,90.304352 472.871063,83.596893 
	C474.092072,82.780869 474.559326,79.025993 473.749207,77.492424 
	C472.943298,75.966812 470.028381,74.688461 468.144409,74.820160 
	C465.825867,74.982239 463.698242,76.972641 461.343933,77.716286 
	C456.634735,79.203751 451.895935,80.994537 447.043915,81.536064 
	C440.400543,82.277504 435.680237,78.042252 435.171631,71.487457 
	C434.567017,63.694588 434.227051,55.872765 434.058044,48.057308 
	C433.934235,42.333057 435.285217,41.230270 441.172058,40.963150 
	C447.987091,40.653919 454.800201,40.298470 461.611908,39.922478 
	C464.650116,39.754768 467.483154,38.992840 467.471771,35.241299 
	C467.460114,31.399115 464.747070,30.090656 461.404724,30.138086 
	C456.585602,30.206469 451.757294,30.395519 446.956024,30.804417 
	C434.745361,31.844332 433.548065,30.694828 432.973816,18.544294 
	C432.750366,13.816776 431.606262,9.132770 431.354492,4.370695 
	C435.490082,4.245760 439.152710,4.120955 442.815338,4.120742 
	C608.879639,4.111095 774.943909,4.113021 941.008240,4.107671 
	C944.338806,4.107564 947.669434,4.037452 951.000000,4.000000 
M326.487671,326.986755 
	C299.704041,352.585602 283.107330,383.602875 277.098297,420.190002 
	C275.630707,429.125793 276.664856,430.205811 285.743256,430.893066 
	C286.075439,430.918213 286.408508,430.931641 286.741119,430.951050 
	C302.742279,431.884521 304.729980,434.096985 303.918945,450.071136 
	C303.567474,456.993835 300.839294,459.951660 293.860962,460.757416 
	C290.059509,461.196350 286.240540,461.522614 282.420654,461.753937 
	C277.481659,462.053009 275.880859,464.393372 276.665924,469.329163 
	C284.230988,516.889282 307.668915,554.555664 347.133026,582.069275 
	C368.088470,596.679016 391.342590,605.757507 416.721954,609.355835 
	C421.716431,610.064026 423.965820,608.384094 424.245667,603.507507 
	C424.455353,599.853699 424.802307,596.208008 425.066254,592.557068 
	C425.579041,585.464966 428.803131,582.255737 435.752960,582.076477 
	C438.748840,581.999146 441.750244,582.052673 444.747345,582.122375 
	C449.756042,582.238831 453.017273,584.724976 453.858093,589.680786 
	C454.635498,594.262634 454.828796,598.940979 455.519135,603.540833 
	C456.361633,609.154419 457.571716,610.058472 463.164856,609.258789 
	C484.358856,606.228516 504.256989,599.360657 522.680359,588.465942 
	C543.469666,576.171997 560.685425,560.031616 574.677673,540.273071 
	C590.117188,518.470642 599.243896,494.300537 603.404419,468.074615 
	C604.003296,464.299622 602.502380,462.327789 598.771362,461.977966 
	C594.630005,461.589752 590.483826,461.253601 586.341248,460.877930 
	C579.139099,460.224915 576.206726,457.166931 576.030029,450.066650 
	C575.967896,447.569336 575.969971,445.067780 576.033875,442.570496 
	C576.217346,435.399231 578.039429,433.060242 585.172363,431.777740 
	C589.580994,430.985077 594.098755,430.812469 598.560242,430.297729 
	C602.500122,429.843231 603.825867,427.707214 603.267273,423.727448 
	C599.093628,393.991791 587.812805,367.190765 569.067017,343.851440 
	C543.396118,311.890015 510.399841,291.639038 469.892120,283.925385 
	C456.028870,281.285492 455.864868,281.205505 454.946777,295.529846 
	C454.161682,307.779266 451.843750,309.991272 439.780273,309.997559 
	C438.447540,309.998260 437.113892,310.013977 435.782196,309.973053 
	C428.839294,309.759766 425.592346,306.569855 425.066132,299.501221 
	C424.782013,295.685181 424.425629,291.874237 424.171570,288.056335 
	C423.875275,283.603943 421.786713,282.092438 417.241699,282.780273 
	C382.615936,288.020386 352.427246,302.323029 326.487671,326.986755 
M543.921875,300.569366 
	C554.372131,310.067688 565.815430,318.693573 575.077515,329.235809 
	C598.391479,355.772156 612.328674,386.927063 617.049133,422.083618 
	C617.290710,423.882843 618.163574,426.267242 619.530823,427.130096 
	C625.658264,430.997223 633.911804,426.314240 633.924988,419.119232 
	C633.970215,394.471649 634.432861,369.811218 633.800354,345.179749 
	C633.141418,319.519989 623.807983,297.109711 605.343262,278.945343 
	C587.095398,260.994293 564.682068,252.648453 539.428406,252.152725 
	C515.622559,251.685425 491.800354,252.049271 467.985352,252.054794 
	C466.653839,252.055115 465.310791,252.022705 463.992950,252.176071 
	C459.476532,252.701660 458.097870,255.144943 458.025177,261.933533 
	C457.981781,265.979126 459.098816,268.450714 463.731049,268.991394 
	C492.971558,272.404449 519.347656,283.256256 543.921875,300.569366 
M542.394958,639.978271 
	C586.619385,639.020142 625.592529,605.549683 632.016785,561.872314 
	C636.492981,531.439270 633.255981,500.689697 633.754150,470.087250 
	C633.823975,465.799622 630.849731,464.408173 623.907410,464.197571 
	C619.963440,464.077911 617.521301,465.507477 617.128052,469.723419 
	C616.850159,472.702362 616.519531,475.692169 615.947144,478.625336 
	C610.633850,505.852051 600.020813,530.812256 583.229309,552.935791 
	C563.939331,578.351257 539.895935,597.878906 510.409729,610.504883 
	C495.624542,616.835938 480.337402,621.172974 464.415955,623.501160 
	C462.231079,623.820618 459.183014,625.782410 458.525513,627.675415 
	C455.892670,635.255432 459.538544,639.955627 467.479858,639.966675 
	C492.126770,640.000854 516.773804,639.980652 542.394958,639.978271 
M271.503693,282.011627 
	C262.438873,291.593475 256.022797,302.754333 251.391647,315.065521 
	C245.985382,329.437286 245.834839,344.363190 245.971741,359.404358 
	C246.155212,379.559937 245.987183,399.718536 246.061615,419.875488 
	C246.083435,425.789154 247.692276,427.273346 253.878983,427.816711 
	C259.837433,428.340027 261.269684,427.262848 262.411285,421.498627 
	C263.639343,415.298035 264.667419,409.045898 266.190521,402.917633 
	C275.539032,365.303284 295.447723,334.100189 324.897430,309.228577 
	C351.318970,286.914398 381.812378,273.133331 416.346039,268.720062 
	C418.146759,268.489960 420.599731,266.958923 421.271088,265.397919 
	C424.286377,258.386810 419.903503,252.072083 412.319885,252.062042 
	C389.164093,252.031372 366.007294,251.919418 342.852631,252.080734 
	C315.291016,252.272751 291.319611,261.345673 271.503693,282.011627 
M283.393250,533.067566 
	C282.672058,531.754639 281.917450,530.458923 281.234711,529.126282 
	C271.739136,510.591614 265.476501,491.022400 262.150818,470.462006 
	C261.806702,468.334320 260.336151,465.320343 258.638336,464.667389 
	C251.748734,462.017639 246.043839,466.216370 246.033661,473.459839 
	C245.999954,497.443878 245.975388,521.428162 246.028992,545.412109 
	C246.079178,567.859436 252.897293,587.984985 267.285980,605.316833 
	C283.169525,624.449402 303.316620,637.316833 328.185883,638.837402 
	C357.223236,640.612854 386.427185,639.671570 415.559021,639.884644 
	C418.672028,639.907410 420.339905,638.316345 421.020355,635.197754 
	C423.011902,626.069763 421.902161,624.460327 412.676910,623.040405 
	C386.083527,618.947571 361.573608,609.369263 339.386047,594.203186 
	C316.214294,578.364502 297.587555,558.207886 283.393250,533.067566 
M803.602417,471.799072 
	C816.981873,494.566437 847.714661,493.738281 861.631836,477.032501 
	C871.321594,465.401245 873.073730,447.172485 864.492554,434.246155 
	C855.279480,420.367920 838.235657,414.437714 823.343872,419.456421 
	C804.005676,425.973663 790.984375,449.343781 803.602417,471.799072 
M10.501905,462.780365 
	C16.242748,479.596497 27.985929,488.348511 43.580708,489.186646 
	C60.067745,490.072693 74.948845,479.049561 78.987381,465.313293 
	C83.115799,451.271301 81.053947,438.375427 70.226776,428.041016 
	C59.382713,417.690460 46.352314,415.090668 32.300694,420.379181 
	C16.564783,426.301575 6.071249,442.497498 10.501905,462.780365 
M46.010262,629.463257 
	C52.576870,638.199768 61.157135,642.408203 72.096642,640.323730 
	C83.296211,638.189514 91.646980,632.403809 93.577263,620.386658 
	C94.378387,615.399170 94.244453,610.180969 93.906860,605.109558 
	C93.365875,596.982971 91.639420,588.891968 91.630249,580.784546 
	C91.619446,571.234314 98.696785,566.399292 107.131042,569.815735 
	C110.126816,571.029114 113.112419,573.724731 114.768509,576.531006 
	C121.222282,587.467163 121.323074,598.500183 114.343285,609.536682 
	C113.078964,611.535828 112.505089,615.748352 113.693573,617.075989 
	C115.206352,618.765808 119.041306,619.500610 121.513992,618.968506 
	C126.349060,617.928162 131.097427,616.052917 135.542465,613.841492 
	C137.355850,612.939392 139.624741,609.983582 139.305649,608.460938 
	C138.827988,606.181580 136.337982,602.718872 134.547577,602.621033 
	C129.210678,602.329529 129.573624,599.564148 130.287323,595.980286 
	C131.949783,587.632263 130.316055,579.771790 126.700249,572.214722 
	C119.599007,557.373108 102.079681,551.547546 88.874969,559.638123 
	C80.191772,564.958313 76.609375,575.772583 78.576660,588.295959 
	C79.888504,596.646973 80.622826,605.134216 80.923317,613.585083 
	C81.192917,621.167542 78.144753,625.114563 72.088997,626.950623 
	C65.348633,628.994324 59.635651,627.109131 55.317303,621.416138 
	C46.287525,609.511902 46.940601,593.701599 56.915791,582.549316 
	C57.691727,581.681885 58.904968,580.860352 59.078850,579.870605 
	C59.452667,577.742920 60.089409,574.984619 59.100094,573.488647 
	C58.150867,572.053284 54.966541,570.840332 53.314514,571.341797 
	C46.002686,573.561218 38.733055,576.096497 31.810238,579.299866 
	C30.016182,580.130005 28.299166,584.106323 28.798164,586.063538 
	C29.284843,587.972290 32.539738,589.362793 34.807907,590.540588 
	C35.761459,591.035767 37.302536,590.399414 39.489269,590.190063 
	C34.664982,604.495911 37.187370,617.223267 46.010262,629.463257 
M572.963013,784.383484 
	C566.963135,788.797546 560.710938,792.914429 555.046265,797.723328 
	C550.811829,801.318115 550.943359,804.340820 554.144836,807.464355 
	C557.919434,811.147278 560.712402,808.802246 563.447510,805.993469 
	C569.838989,799.429810 577.276245,794.566833 586.123779,791.958496 
	C594.916809,789.366211 601.093689,792.560608 604.275635,801.210754 
	C605.304077,804.006653 604.848938,805.704529 601.773254,806.360901 
	C598.191467,807.125183 594.577942,807.787537 591.053711,808.766235 
	C580.795959,811.615112 571.219116,815.726501 564.464111,824.485962 
	C558.926880,831.666199 558.667236,841.237183 563.635803,849.326538 
	C568.566895,857.355164 577.386597,861.628540 586.025696,860.234558 
	C598.302368,858.253540 608.285645,852.536865 615.243713,842.082458 
	C617.610535,838.526306 619.828979,836.958008 624.200806,839.486572 
	C629.667664,842.648438 635.385010,840.930725 640.280518,837.851624 
	C641.940430,836.807556 643.204895,833.454468 642.922363,831.393311 
	C642.490540,828.243225 639.766357,827.184631 636.379761,827.885315 
	C629.930664,829.219666 628.755310,828.523865 626.200562,822.334290 
	C622.326294,812.948242 618.828308,803.395569 614.650757,794.148560 
	C608.498596,780.530945 597.119263,775.771851 582.952576,780.453552 
	C579.796936,781.496399 576.747803,782.861389 572.963013,784.383484 
M315.553802,802.220154 
	C315.009796,803.653931 314.873749,805.546692 313.857910,806.449768 
	C304.902557,814.411011 295.818909,822.229492 286.686188,829.987732 
	C285.653625,830.864868 284.083862,831.109558 282.763275,831.647583 
	C282.189819,830.172668 281.214813,828.726379 281.107117,827.218201 
	C280.325348,816.267822 279.649109,805.308472 279.080383,794.344666 
	C278.694244,786.900879 279.271423,786.497559 286.332825,788.888977 
	C289.904297,790.098572 292.971405,790.075745 294.692963,786.120483 
	C296.400909,782.196472 293.973511,780.090027 290.889374,778.699768 
	C283.452667,775.347717 275.959625,772.114929 268.426147,768.986084 
	C265.240417,767.662964 262.047211,767.767639 260.134033,771.182983 
	C258.239075,774.565674 260.147156,777.027954 262.896240,778.692871 
	C266.206116,780.697205 266.992981,783.595398 267.053162,787.150330 
	C267.134766,791.970093 267.467468,796.787415 267.764618,801.601318 
	C268.502502,813.556152 269.491364,825.501404 269.891632,837.466797 
	C269.988007,840.348572 269.045410,844.171021 267.113159,846.058838 
	C258.497955,854.475952 248.852097,860.695435 235.803253,856.751770 
	C232.030334,855.611511 228.292648,855.783386 227.071854,860.650757 
	C225.901627,865.316528 228.864304,867.138855 232.622528,868.632019 
	C245.840866,873.883606 257.418945,869.810974 267.511322,861.527832 
	C286.550995,845.901306 305.122009,829.700745 323.764557,813.596130 
	C327.303345,810.539124 330.413757,807.871033 335.683350,809.404114 
	C337.190857,809.842712 340.621765,808.054565 341.082611,806.617676 
	C341.684631,804.740540 340.889557,800.858521 339.517517,800.163147 
	C331.819214,796.261047 323.846436,792.843811 315.756714,789.825623 
	C314.393646,789.317078 310.950500,791.145447 310.359589,792.641235 
	C309.652130,794.432129 310.635712,797.178101 311.551239,799.211304 
	C312.069489,800.362305 313.919800,800.913513 315.553802,802.220154 
M820.352356,569.195435 
	C818.593445,567.797607 816.944214,565.387329 815.055969,565.182739 
	C808.033203,564.421509 800.609436,562.909241 793.924133,564.369934 
	C777.672729,567.920837 769.979980,580.145752 766.947815,595.587585 
	C764.210205,609.529175 769.271790,620.925110 780.028564,629.617981 
	C794.929626,641.659790 813.316650,643.271973 826.816711,633.866577 
	C837.306763,626.558167 841.774292,615.313538 844.509644,603.493958 
	C845.839905,597.745728 845.717834,591.612549 845.819336,585.646301 
	C845.884338,581.825195 843.700867,579.295105 839.603394,579.363525 
	C835.602722,579.430298 834.196106,582.072815 834.106201,585.692200 
	C834.060669,587.523315 834.370605,589.430176 833.965271,591.173828 
	C832.206360,598.739075 831.102051,606.613831 828.153076,613.708252 
	C823.724976,624.360901 815.914856,628.089172 804.458130,626.885376 
	C799.022644,626.314270 798.141296,624.745056 800.347290,619.725525 
	C805.772583,607.380859 811.283875,595.071899 816.519287,582.646851 
	C818.239441,578.564392 819.218079,574.169495 820.352356,569.195435 
M102.486862,326.929413 
	C107.165466,318.971924 109.891846,310.545532 108.446716,301.188080 
	C107.018074,291.937347 101.544777,285.969147 93.064011,282.458313 
	C83.891006,278.660889 75.737396,280.516022 68.635246,287.089508 
	C66.101936,289.434235 63.905178,292.235168 61.957912,295.101715 
	C57.565784,301.567291 53.589596,308.318542 49.116241,314.724579 
	C46.701653,318.182404 43.220791,320.123657 38.698341,318.723206 
	C33.751133,317.191284 30.639370,313.912842 30.232689,308.739319 
	C30.016710,305.991791 30.330276,303.039215 31.138216,300.404083 
	C33.997952,291.076782 39.737041,284.526855 49.438709,281.560059 
	C51.514641,280.925201 53.968124,278.316742 54.313732,276.287994 
	C54.571495,274.774933 52.068451,272.013062 50.168541,271.072418 
	C46.172024,269.093811 41.830341,267.683990 37.492355,266.585510 
	C35.717091,266.135956 32.710804,266.429016 31.829052,267.581390 
	C30.648565,269.124207 29.923498,272.610199 30.866051,273.895813 
	C34.238258,278.495331 31.803549,281.014862 28.624180,283.907013 
	C20.234249,291.538940 18.247265,301.398804 19.285521,312.166779 
	C20.674744,326.574677 38.873249,336.176147 49.942753,329.022034 
	C54.662407,325.971771 58.510841,321.246246 62.001564,316.702972 
	C66.548370,310.785217 69.917686,303.947845 74.582161,298.139404 
	C79.574760,291.922394 84.710640,291.237732 90.875603,294.560486 
	C96.387840,297.531403 99.117378,304.214142 97.281166,310.922150 
	C93.898956,323.278015 87.431892,332.245300 73.274048,333.404907 
	C71.185005,333.575989 68.277084,336.337830 67.731766,338.420441 
	C67.357208,339.850922 70.026962,342.965668 72.016884,343.947571 
	C76.463005,346.141510 81.324623,347.502136 86.037102,349.144501 
	C89.328049,350.291412 92.846390,352.039185 95.488815,348.155853 
	C98.299927,344.024567 95.544746,341.394470 92.590225,338.924683 
	C92.388321,338.755890 92.418900,338.309021 92.315331,337.884857 
	C95.553566,334.465759 98.829796,331.006531 102.486862,326.929413 
M618.719421,129.200684 
	C618.057922,127.586380 617.799988,125.573013 616.665833,124.426079 
	C611.446228,119.147644 611.268616,118.377625 614.022217,111.453087 
	C617.341980,103.104942 620.712952,94.763916 623.616211,86.267578 
	C625.944092,79.455231 625.518982,72.595840 620.400391,67.054161 
	C609.700928,55.470325 595.697327,52.891907 580.758057,53.300655 
	C579.806641,53.326691 578.542297,53.597969 577.992676,54.241360 
	C576.780701,55.660130 574.964294,57.541286 575.185547,58.953178 
	C575.451050,60.647942 577.363037,62.367279 578.976379,63.469818 
	C580.066772,64.214981 581.869812,63.942799 583.358582,64.075279 
	C591.649414,64.813049 599.959351,65.337067 607.355835,69.902344 
	C612.983398,73.375809 614.870667,78.182083 612.668274,84.314835 
	C610.661011,89.904243 610.107849,89.659248 604.979919,87.037117 
	C597.338562,83.129662 589.502441,79.300957 581.331482,76.807442 
	C571.032043,73.664391 561.156433,79.007996 556.701355,87.983215 
	C551.396179,98.670891 556.491089,108.952522 564.581604,114.546860 
	C573.437561,120.670448 583.315491,122.220612 593.661865,120.297791 
	C597.722107,119.543221 599.714233,120.312561 601.205322,124.271889 
	C603.120422,129.357056 607.705200,131.644592 612.697266,132.967377 
	C615.455017,133.698105 617.650146,132.912338 618.719421,129.200684 
M121.518295,740.748962 
	C127.570564,759.138306 141.508713,768.710938 159.034851,774.221924 
	C163.017502,775.474243 166.017471,774.132568 167.326950,770.093933 
	C168.638824,766.047913 166.517136,763.910339 162.823730,762.624390 
	C159.056824,761.312866 155.154694,760.116394 151.731720,758.141602 
	C141.411835,752.188049 132.999741,744.735229 133.006943,731.410400 
	C133.012222,721.652527 138.842972,715.175720 145.874710,709.971924 
	C153.462112,704.356873 162.172272,703.206543 170.822144,707.913147 
	C180.128372,712.976990 186.813736,720.265076 186.545273,731.505920 
	C186.465607,734.841431 183.969147,738.184753 182.333832,741.399292 
	C180.654205,744.700928 181.035172,747.502563 183.749374,749.946106 
	C186.466980,752.392700 188.947601,751.368103 191.253510,749.228210 
	C196.132050,744.700867 201.026154,740.189331 205.846481,735.600525 
	C208.157776,733.400269 209.728729,730.859924 207.643127,727.658447 
	C205.606842,724.532715 202.831436,723.824707 199.403351,725.341309 
	C198.721909,725.642761 197.843079,725.498047 196.855255,725.574646 
	C196.495407,724.265137 196.119995,723.185242 195.905029,722.074219 
	C192.316956,703.529419 174.148392,690.684631 155.392654,692.693848 
	C135.829025,694.789673 115.374199,716.210144 121.518295,740.748962 
M788.111145,344.417114 
	C789.860107,345.663269 791.489197,347.638733 793.391602,347.951385 
	C795.312500,348.267059 798.160706,347.513367 799.371826,346.141571 
	C800.356079,345.026672 799.878967,342.206268 799.366516,340.328766 
	C799.014404,339.038422 797.302917,338.185242 796.524536,336.934174 
	C792.167480,329.931122 787.213623,323.184143 783.812439,315.733978 
	C780.376038,308.206604 782.731995,301.113983 788.963928,295.441895 
	C793.691956,291.138672 795.867859,291.478455 798.495544,297.493530 
	C801.823975,305.112579 804.964539,312.813568 808.200378,320.473267 
	C810.594421,326.140198 812.974121,331.813721 815.433960,337.452087 
	C816.617981,340.166077 818.467346,342.086792 821.666016,340.513031 
	C829.945923,336.439270 837.064209,330.925995 840.177551,321.908752 
	C847.499390,300.702454 832.666016,277.473541 810.349487,275.661285 
	C801.593201,274.950226 793.200745,277.816376 785.901001,282.919037 
	C771.905334,292.702271 767.580688,306.138672 774.415283,321.739838 
	C777.837952,329.552765 783.158264,336.534363 788.111145,344.417114 
M238.514084,76.912224 
	C238.276932,81.670670 240.944443,82.714241 245.160278,82.747795 
	C247.796967,82.768784 251.017181,83.250427 252.958557,84.799728 
	C264.931396,94.354591 276.713684,104.157875 288.296204,114.182579 
	C290.195984,115.826836 291.656586,118.911522 291.844208,121.440010 
	C292.671722,132.592026 290.897003,142.782379 279.654755,148.749741 
	C276.446472,150.452728 275.362671,153.398834 277.291748,156.814789 
	C279.197723,160.189819 282.191711,159.935837 285.135040,158.607651 
	C293.011658,155.053268 298.650024,149.175446 300.687592,140.784058 
	C302.367920,133.863708 303.458160,126.693962 303.833069,119.583221 
	C304.840820,100.469460 305.209290,81.322342 306.160553,62.204830 
	C306.283447,59.734505 307.858795,56.884033 309.635925,55.063248 
	C311.845001,52.799896 313.558411,50.832062 311.886963,47.756207 
	C310.165314,44.587963 307.179718,44.791847 304.434540,45.919853 
	C298.428711,48.387657 292.400421,50.875671 286.683777,53.922859 
	C285.140411,54.745529 283.505951,58.041821 284.020416,59.410915 
	C284.663055,61.121151 287.639984,63.241817 289.333893,63.025894 
	C294.242340,62.400211 295.198456,64.626266 295.039124,68.656601 
	C294.631378,78.969032 294.314484,89.285156 293.872375,99.595993 
	C293.828430,100.621361 293.174225,101.620560 292.604797,103.172974 
	C290.988800,102.021454 289.753174,101.252609 288.643372,100.332108 
	C281.208069,94.165062 273.820587,87.940277 266.375427,81.785179 
	C260.731934,77.119576 260.692200,76.986511 267.088470,73.134766 
	C269.835388,71.480621 271.600342,69.431763 269.846191,66.211273 
	C268.205750,63.199551 265.540771,62.854076 262.534271,64.176102 
	C256.131287,66.991600 249.678207,69.699043 243.343750,72.660568 
	C241.625946,73.463684 240.258469,75.016136 238.514084,76.912224 
M689.543396,706.953064 
	C702.756165,720.811157 716.013611,734.627075 729.156677,748.550903 
	C733.582153,753.239258 733.480713,754.095398 728.739746,758.751953 
	C724.941467,762.482483 720.851318,765.920776 717.132202,769.724976 
	C714.769287,772.141785 714.409241,775.160400 716.866699,777.804199 
	C719.449951,780.583191 722.310120,779.939270 724.790405,777.585815 
	C739.163147,763.947998 753.504150,750.276550 767.808105,736.566589 
	C770.402466,734.079895 771.280518,731.213501 768.422241,728.263794 
	C765.691162,725.445312 762.873901,726.443848 760.445679,728.592468 
	C756.832520,731.789612 753.413757,735.209717 749.966980,738.590698 
	C743.528625,744.906189 743.253540,745.033325 736.938965,738.442566 
	C719.661072,720.409119 702.467285,702.294922 685.295471,684.160400 
	C681.165649,679.798950 677.948792,679.080444 674.159424,682.513062 
	C668.114746,687.988831 662.174072,693.586609 656.353516,699.300049 
	C652.773071,702.814636 652.639221,706.105225 655.632141,708.791443 
	C659.153137,711.951599 661.745850,709.483459 664.233521,707.153625 
	C667.394165,704.193542 670.453003,701.125061 673.579712,698.128418 
	C676.569946,695.262512 679.354797,695.337585 682.075562,698.616455 
	C684.306396,701.304993 686.715698,703.845276 689.543396,706.953064 
M145.647491,197.979980 
	C144.305435,196.999954 142.791199,196.187531 141.648361,195.013580 
	C131.951385,185.052338 130.710373,175.564682 137.327591,164.809784 
	C144.107407,153.790634 152.131638,151.768524 164.767746,156.703644 
	C166.559036,157.403259 170.095139,156.662704 171.189133,155.287979 
	C172.334396,153.848801 172.510437,149.912170 171.369125,148.680893 
	C166.642090,143.581253 161.412369,138.898270 155.988251,134.533234 
	C154.823120,133.595612 151.579086,133.929718 150.204834,134.930496 
	C148.815674,135.942123 147.496399,138.892334 148.011856,140.319672 
	C149.376709,144.098892 148.204102,145.289215 144.692383,146.237915 
	C130.644165,150.033081 121.772354,164.219528 121.451767,178.454575 
	C121.157097,191.538849 132.445358,206.296249 145.180542,210.942673 
	C159.125031,216.030304 173.258240,212.398911 183.222092,201.034927 
	C185.300415,198.664566 187.621353,196.235321 188.801636,193.404282 
	C191.467789,187.009201 193.858200,180.442474 195.614655,173.749756 
	C196.439743,170.605881 194.184189,167.437210 190.690964,167.657822 
	C188.687531,167.784348 186.325760,169.995972 185.064957,171.893311 
	C183.856766,173.711487 183.939819,176.357742 183.323486,178.603882 
	C178.138809,197.499222 162.402740,205.874680 145.647491,197.979980 
M734.024719,159.524719 
	C725.583069,168.264084 717.127075,176.989624 708.705627,185.748428 
	C704.333740,190.295395 703.030518,190.338074 698.502258,186.119461 
	C694.971252,182.829880 691.572266,179.324783 687.663574,176.550888 
	C686.102783,175.443222 682.806763,175.143860 681.227295,176.065155 
	C678.548584,177.627563 678.907043,180.569092 680.791992,183.029709 
	C681.397400,183.819901 682.076172,184.564468 682.789795,185.259598 
	C694.953430,197.107468 707.130066,208.942047 719.297913,220.785660 
	C721.512146,222.940933 723.797974,224.452606 726.590393,221.682510 
	C729.329285,218.965469 728.720520,216.344055 726.255432,213.850159 
	C722.860291,210.415436 719.412781,207.032379 716.033752,203.582031 
	C711.878967,199.339539 711.929016,198.632065 716.150146,194.245590 
	C732.192627,177.574600 748.226318,160.895172 764.251221,144.207291 
	C768.628479,139.648911 768.730469,137.435654 764.138062,132.829666 
	C759.323547,128.000977 754.234131,123.444656 749.222168,118.815521 
	C747.030212,116.790985 744.511841,115.025002 741.840698,117.784714 
	C739.266602,120.444160 740.118042,123.329834 742.426819,125.785690 
	C745.049377,128.575165 747.694153,131.361862 750.529663,133.928375 
	C754.085449,137.146790 753.778748,139.929779 750.424805,143.130890 
	C745.005127,148.303497 739.812561,153.714005 734.024719,159.524719 
M245.099625,451.452667 
	C259.340637,450.356354 273.549622,449.022583 287.644836,446.061279 
	C285.931458,444.780670 284.251923,444.285095 282.540436,444.119598 
	C267.512451,442.666321 252.474152,441.318970 237.449478,439.833160 
	C232.512665,439.344940 231.257797,440.327240 231.121490,445.470856 
	C230.956863,451.682892 232.682419,453.261444 238.798706,452.443024 
	C240.609726,452.200653 242.409439,451.873779 245.099625,451.452667 
M434.967041,636.367737 
	C434.416779,640.657349 433.682770,644.933472 433.366882,649.240295 
	C433.036530,653.744568 435.223511,655.129395 441.100037,654.892273 
	C445.065857,654.732300 446.711517,653.189697 446.263062,648.952148 
	C444.653381,633.742188 443.344727,618.500549 441.819366,603.281189 
	C441.649109,601.582581 440.821350,599.949890 440.298523,598.286560 
	C439.742462,598.370056 439.186432,598.453552 438.630371,598.536987 
	C437.421173,610.840515 436.211975,623.144043 434.967041,636.367737 
M433.851746,246.750946 
	C435.478088,262.395538 437.104401,278.040131 438.730743,293.684692 
	C439.354614,293.707855 439.978516,293.730988 440.602386,293.754120 
	C441.014435,292.457031 441.672668,291.183777 441.800903,289.859222 
	C443.306702,274.306427 444.797668,258.751282 446.074860,243.178894 
	C446.195312,241.710022 445.014893,238.931107 444.138336,238.802246 
	C441.129242,238.359894 437.725311,238.173218 435.018829,239.256088 
	C433.879974,239.711761 434.106812,243.580811 433.851746,246.750946 
M605.785156,448.591888 
	C617.827393,449.906799 629.860901,451.316040 641.921814,452.428070 
	C643.601868,452.582977 646.697937,451.573730 646.928345,450.587219 
	C647.611694,447.661285 647.573059,444.397125 646.954651,441.445801 
	C646.781494,440.619385 643.582703,439.870758 641.848938,440.014740 
	C626.799377,441.264648 611.764343,442.695038 596.734863,444.171814 
	C595.186829,444.323883 593.702820,445.128357 592.189148,445.630127 
	C592.252197,446.197449 592.315247,446.764740 592.378357,447.332062 
	C596.550171,447.704956 600.722046,448.077850 605.785156,448.591888 
z"/>
<path fill="#1B2140" opacity="1.000000" stroke="none" 
	d="
M433.468658,885.000000 
	C423.783417,878.733337 420.866486,869.536865 421.089935,858.989624 
	C421.241394,851.841614 421.761810,844.701660 421.927063,837.553711 
	C422.099945,830.075684 421.137238,829.199646 413.796112,828.956421 
	C411.309235,828.874023 408.528229,829.207520 406.432526,828.202393 
	C404.411987,827.233337 402.069519,824.963379 401.714813,822.941101 
	C401.137421,819.649048 403.975861,817.963013 407.105042,817.745056 
	C409.745209,817.561157 412.421021,817.791260 415.075714,817.935730 
	C419.510773,818.177002 421.984192,816.476135 422.107758,811.699890 
	C422.240967,806.549744 422.815643,801.412354 423.013885,796.262268 
	C423.168976,792.234192 424.510864,789.407898 429.024353,789.301208 
	C433.737000,789.189819 434.911285,792.244934 434.941376,796.184753 
	C434.979553,801.178406 435.150330,806.180847 434.925415,811.164124 
	C434.695282,816.262207 437.101929,818.614746 441.948822,818.726807 
	C449.269348,818.896118 456.595032,818.869934 463.913300,819.096313 
	C465.850586,819.156189 468.333405,819.243347 469.541779,820.393616 
	C470.830719,821.620667 471.856110,824.506653 471.264191,825.965454 
	C470.577606,827.657532 468.060547,829.572266 466.243225,829.672668 
	C458.442596,830.103516 450.607117,829.899719 442.784332,829.933533 
	C434.609772,829.968872 434.025299,830.524902 433.979858,838.765503 
	C433.938568,846.256165 433.802277,853.752441 434.025482,861.236816 
	C434.334503,871.598694 438.897644,876.046753 449.215454,874.776855 
	C455.342560,874.022705 461.436798,871.812012 467.156311,869.350952 
	C471.012695,867.691528 473.705353,867.269043 476.050751,871.076843 
	C478.266907,874.674866 477.378906,877.603638 473.027374,880.060730 
	C469.991821,881.774719 466.754578,883.131531 463.303711,884.823975 
	C453.312439,885.000000 443.624878,885.000000 433.468658,885.000000 
z"/>
<path fill="#3F3A3E" opacity="1.000000" stroke="none" 
	d="
M1.000000,3.000000 
	C1.333333,2.333333 1.548027,1.216341 2.023962,1.090954 
	C3.114909,0.803541 4.333333,1.000000 5.500000,1.000000 
	C319.166656,1.000000 632.833313,0.998604 946.500000,1.041243 
	C948.000061,1.041447 949.500000,1.666668 950.531372,2.500001 
	C633.708435,3.000000 317.354218,3.000000 1.000000,3.000000 
z"/>
<path fill="#000000" opacity="1.000000" stroke="none" 
	d="
M1.000000,3.250000 
	C317.354218,3.000000 633.708435,3.000000 950.531372,3.000000 
	C951.000000,3.000000 951.000000,3.500000 951.000000,3.750000 
	C947.669434,4.037452 944.338806,4.107564 941.008240,4.107671 
	C774.943909,4.113021 608.879639,4.111095 442.815338,4.120742 
	C439.152710,4.120955 435.490082,4.245760 431.018982,4.340980 
	C429.757782,4.360332 429.305084,4.351153 428.517365,4.311070 
	C427.510834,4.299536 426.839294,4.318907 425.826050,4.340794 
	C425.031830,4.372063 424.579376,4.400818 424.126892,4.429572 
	C420.466980,4.323859 416.807068,4.126157 413.147156,4.125724 
	C279.241058,4.109896 145.334961,4.112800 11.428860,4.109839 
	C8.264637,4.109769 5.100414,4.072131 1.468096,4.026008 
	C1.000000,4.000000 1.000000,3.500000 1.000000,3.250000 
z"/>
<path fill="#1B2141" opacity="1.000000" stroke="none" 
	d="
M326.739197,326.737610 
	C352.427246,302.323029 382.615936,288.020386 417.241699,282.780273 
	C421.786713,282.092438 423.875275,283.603943 424.171570,288.056335 
	C424.425629,291.874237 424.782013,295.685181 425.066132,299.501221 
	C425.592346,306.569855 428.839294,309.759766 435.782196,309.973053 
	C437.113892,310.013977 438.447540,309.998260 439.780273,309.997559 
	C451.843750,309.991272 454.161682,307.779266 454.946777,295.529846 
	C455.864868,281.205505 456.028870,281.285492 469.892120,283.925385 
	C510.399841,291.639038 543.396118,311.890015 569.067017,343.851440 
	C587.812805,367.190765 599.093628,393.991791 603.267273,423.727448 
	C603.825867,427.707214 602.500122,429.843231 598.560242,430.297729 
	C594.098755,430.812469 589.580994,430.985077 585.172363,431.777740 
	C578.039429,433.060242 576.217346,435.399231 576.033875,442.570496 
	C575.969971,445.067780 575.967896,447.569336 576.030029,450.066650 
	C576.206726,457.166931 579.139099,460.224915 586.341248,460.877930 
	C590.483826,461.253601 594.630005,461.589752 598.771362,461.977966 
	C602.502380,462.327789 604.003296,464.299622 603.404419,468.074615 
	C599.243896,494.300537 590.117188,518.470642 574.677673,540.273071 
	C560.685425,560.031616 543.469666,576.171997 522.680359,588.465942 
	C504.256989,599.360657 484.358856,606.228516 463.164856,609.258789 
	C457.571716,610.058472 456.361633,609.154419 455.519135,603.540833 
	C454.828796,598.940979 454.635498,594.262634 453.858093,589.680786 
	C453.017273,584.724976 449.756042,582.238831 444.747345,582.122375 
	C441.750244,582.052673 438.748840,581.999146 435.752960,582.076477 
	C428.803131,582.255737 425.579041,585.464966 425.066254,592.557068 
	C424.802307,596.208008 424.455353,599.853699 424.245667,603.507507 
	C423.965820,608.384094 421.716431,610.064026 416.721954,609.355835 
	C391.342590,605.757507 368.088470,596.679016 347.133026,582.069275 
	C307.668915,554.555664 284.230988,516.889282 276.665924,469.329163 
	C275.880859,464.393372 277.481659,462.053009 282.420654,461.753937 
	C286.240540,461.522614 290.059509,461.196350 293.860962,460.757416 
	C300.839294,459.951660 303.567474,456.993835 303.918945,450.071136 
	C304.729980,434.096985 302.742279,431.884521 286.741119,430.951050 
	C286.408508,430.931641 286.075439,430.918213 285.743256,430.893066 
	C276.664856,430.205811 275.630707,429.125793 277.098297,420.190002 
	C283.107330,383.602875 299.704041,352.585602 326.739197,326.737610 
M478.710022,344.762146 
	C495.571259,358.393219 504.230804,375.852264 504.095612,397.731964 
	C503.907166,428.227509 503.985016,458.725342 504.086182,489.221741 
	C504.117798,498.759003 503.903564,508.169312 500.665741,517.331543 
	C499.060974,521.872742 501.307617,524.191528 507.998810,526.178162 
	C512.282532,527.449951 514.046021,524.817444 514.683105,521.499084 
	C516.309998,513.025330 518.649475,504.495392 518.772339,495.960052 
	C519.247437,462.970520 519.128967,429.968903 518.891663,396.974243 
	C518.793579,383.328217 515.845093,370.211304 509.054993,358.143127 
	C498.515228,339.410736 483.069519,326.732483 462.508606,320.437866 
	C460.599915,319.853485 457.064240,319.578674 456.516052,320.495148 
	C454.883179,323.225159 453.746490,326.608459 453.683716,329.761749 
	C453.654877,331.210907 456.365356,333.122955 458.212921,334.127502 
	C464.766937,337.690857 471.484406,340.953644 478.710022,344.762146 
M446.971863,428.500000 
	C446.971954,429.832458 446.971802,431.164886 446.972168,432.497345 
	C446.976959,448.986115 446.885620,465.476166 447.102600,481.962158 
	C447.131256,484.137085 448.122772,487.343231 449.715302,488.267181 
	C455.594025,491.677917 461.002350,488.209717 461.027496,481.402740 
	C461.082855,466.413116 461.056458,451.423187 461.049866,436.433380 
	C461.043915,422.942688 461.220856,409.447876 460.946777,395.962433 
	C460.678467,382.761688 452.582550,375.052917 439.413544,374.975922 
	C429.753876,374.919495 420.090820,374.839050 410.434235,375.025879 
	C398.409760,375.258423 390.109863,383.591705 390.025238,395.622681 
	C389.889313,414.941895 389.944550,434.262848 390.005676,453.582825 
	C390.024567,459.556396 391.398987,460.882385 396.866669,460.915009 
	C402.446777,460.948303 403.905670,459.627930 403.934174,453.810547 
	C404.023132,435.656677 403.913788,417.501587 404.053833,399.348328 
	C404.112579,391.734009 406.775055,389.181335 414.393250,389.037628 
	C421.552521,388.902588 428.717133,388.924072 435.877625,389.015869 
	C444.570038,389.127319 446.892914,391.451782 446.950592,400.018768 
	C447.012238,409.178802 446.969025,418.339569 446.971863,428.500000 
M387.027069,337.512238 
	C372.150482,351.345978 362.681152,368.129639 361.721008,388.578918 
	C360.799896,408.195251 361.205109,427.873962 361.031128,447.525238 
	C360.987457,452.454620 364.235260,453.002289 368.114044,453.028259 
	C372.130219,453.055145 375.033112,452.131195 375.008667,447.313904 
	C374.963867,438.483582 374.820648,429.646576 375.088776,420.823608 
	C375.467255,408.367340 375.088806,395.752899 376.975464,383.505127 
	C381.219391,355.954651 405.378571,334.450226 433.191101,332.024994 
	C439.570587,331.468719 440.677002,329.850555 439.921692,322.181732 
	C439.468292,317.578369 437.812561,316.606934 431.583527,317.446381 
	C414.999298,319.681366 400.075775,325.670197 387.027069,337.512238 
M378.594818,515.832581 
	C377.481995,510.629791 376.494629,505.396118 375.222656,500.232544 
	C373.828064,494.571411 369.144440,496.112396 365.367279,496.220917 
	C361.511658,496.331726 360.923798,499.144928 361.318054,502.274017 
	C361.837494,506.396759 362.110931,510.599945 363.141571,514.600708 
	C369.406982,538.922424 383.796173,556.819702 406.438538,567.739929 
	C419.952545,574.257629 434.365479,576.356934 449.239777,574.297791 
	C451.157593,574.032227 453.895477,572.365601 454.429779,570.746277 
	C456.356140,564.907410 451.829834,559.819397 445.798645,560.404480 
	C416.312317,563.265076 387.785767,544.604797 378.594818,515.832581 
M461.441162,503.048218 
	C455.948273,503.090118 450.450134,502.998322 444.964050,503.213318 
	C439.950378,503.409821 440.039154,507.218445 440.005524,510.830994 
	C439.972504,514.375671 440.205139,517.825256 444.958069,517.841248 
	C453.444153,517.869812 461.971497,518.234070 470.406921,517.544678 
	C481.075043,516.672729 489.519440,508.614929 489.714233,498.601227 
	C490.157654,475.802826 489.940826,452.990479 489.815918,430.184723 
	C489.807495,428.644501 488.725311,426.429840 487.463104,425.693481 
	C481.729553,422.348480 476.012787,425.783813 475.989075,432.436157 
	C475.930298,448.917725 475.985046,465.399658 475.947144,481.881317 
	C475.936829,486.372192 475.988892,490.882782 475.596710,495.347839 
	C475.176147,500.136322 472.446136,502.912079 467.407593,502.978210 
	C465.743103,503.000031 464.078644,503.024780 461.441162,503.048218 
M455.207672,532.052917 
	C450.711761,532.042114 446.215759,532.048767 441.720001,532.017578 
	C419.445404,531.863098 404.464203,517.076721 404.012634,494.766663 
	C403.911560,489.772949 403.927429,484.776550 403.920990,479.781342 
	C403.914856,475.020172 400.947510,474.066772 396.951141,474.068207 
	C392.926788,474.069672 390.022583,475.116211 390.024200,479.842560 
	C390.026245,485.836884 389.887756,491.833160 389.995880,497.825226 
	C390.367126,518.400574 400.664520,532.694031 418.575745,541.756958 
	C430.459045,547.769775 443.450867,547.119019 456.276886,546.796692 
	C460.945801,546.679321 461.728607,543.245300 461.884369,539.449158 
	C462.053772,535.320190 461.233459,532.040771 455.207672,532.052917 
M489.985962,402.334717 
	C489.967773,399.172150 490.045593,396.005646 489.915771,392.847656 
	C489.089478,372.749542 473.758148,352.613556 454.393555,348.151825 
	C444.464783,345.864166 433.977295,345.874603 423.719269,345.193512 
	C418.154968,344.824066 418.077850,349.045959 418.024017,353.102051 
	C417.970978,357.101562 418.878296,360.037201 423.716644,359.981781 
	C429.042145,359.920776 434.374390,359.873566 439.694855,360.065643 
	C453.588654,360.567322 464.290619,366.674438 471.131104,378.870911 
	C475.324951,386.348389 475.889343,394.694672 475.997894,403.085999 
	C476.072205,408.828674 477.223022,409.926453 482.644623,410.011627 
	C488.461517,410.102997 489.462830,409.182220 489.985962,402.334717 
M432.724182,435.126770 
	C430.947662,429.233093 426.124481,431.205292 422.295532,431.372986 
	C418.220184,431.551483 418.068268,434.958130 418.064148,438.050079 
	C418.041260,455.177399 417.999939,472.305054 418.081604,489.432007 
	C418.108521,495.073578 419.350311,496.027679 425.520752,496.019257 
	C431.667175,496.010864 432.896088,495.059052 432.911591,489.373840 
	C432.960083,471.582489 432.872223,453.790771 432.724182,435.126770 
M467.659393,554.899475 
	C465.796082,559.697144 468.405914,563.565369 471.417877,566.277039 
	C472.607788,567.348328 477.202881,566.011841 479.281799,564.469727 
	C486.173431,559.357727 492.688049,553.726013 499.214294,548.138428 
	C501.697540,546.012329 502.204712,543.565674 499.438080,540.928284 
	C494.684326,536.396606 491.868530,535.677307 488.765503,538.183594 
	C481.957306,543.682556 475.027954,549.031433 467.659393,554.899475 
M432.211090,415.510437 
	C432.431000,414.544067 432.769745,413.587738 432.852234,412.609802 
	C433.581543,403.963531 430.594086,401.438446 422.007935,403.165863 
	C418.530548,403.865448 417.963135,406.305023 418.104431,409.113342 
	C418.261658,412.238434 416.801147,416.654358 421.313904,417.422913 
	C424.631561,417.987915 428.270081,416.668671 432.211090,415.510437 
M361.221436,477.955231 
	C362.869507,483.507172 367.404205,481.984772 371.128845,481.715149 
	C374.937683,481.439514 374.962006,478.226654 375.009979,475.334045 
	C375.110779,469.254883 373.838135,467.954346 367.862885,467.991760 
	C361.760162,468.029968 360.885895,469.208740 361.221436,477.955231 
z"/>
<path fill="#1B2141" opacity="1.000000" stroke="none" 
	d="
M543.626343,300.364380 
	C519.347656,283.256256 492.971558,272.404449 463.731049,268.991394 
	C459.098816,268.450714 457.981781,265.979126 458.025177,261.933533 
	C458.097870,255.144943 459.476532,252.701660 463.992950,252.176071 
	C465.310791,252.022705 466.653839,252.055115 467.985352,252.054794 
	C491.800354,252.049271 515.622559,251.685425 539.428406,252.152725 
	C564.682068,252.648453 587.095398,260.994293 605.343262,278.945343 
	C623.807983,297.109711 633.141418,319.519989 633.800354,345.179749 
	C634.432861,369.811218 633.970215,394.471649 633.924988,419.119232 
	C633.911804,426.314240 625.658264,430.997223 619.530823,427.130096 
	C618.163574,426.267242 617.290710,423.882843 617.049133,422.083618 
	C612.328674,386.927063 598.391479,355.772156 575.077515,329.235809 
	C565.815430,318.693573 554.372131,310.067688 543.626343,300.364380 
z"/>
<path fill="#1B2141" opacity="1.000000" stroke="none" 
	d="
M541.907837,639.979980 
	C516.773804,639.980652 492.126770,640.000854 467.479858,639.966675 
	C459.538544,639.955627 455.892670,635.255432 458.525513,627.675415 
	C459.183014,625.782410 462.231079,623.820618 464.415955,623.501160 
	C480.337402,621.172974 495.624542,616.835938 510.409729,610.504883 
	C539.895935,597.878906 563.939331,578.351257 583.229309,552.935791 
	C600.020813,530.812256 610.633850,505.852051 615.947144,478.625336 
	C616.519531,475.692169 616.850159,472.702362 617.128052,469.723419 
	C617.521301,465.507477 619.963440,464.077911 623.907410,464.197571 
	C630.849731,464.408173 633.823975,465.799622 633.754150,470.087250 
	C633.255981,500.689697 636.492981,531.439270 632.016785,561.872314 
	C625.592529,605.549683 586.619385,639.020142 541.907837,639.979980 
z"/>
<path fill="#1B2141" opacity="1.000000" stroke="none" 
	d="
M271.753296,281.758972 
	C291.319611,261.345673 315.291016,252.272751 342.852631,252.080734 
	C366.007294,251.919418 389.164093,252.031372 412.319885,252.062042 
	C419.903503,252.072083 424.286377,258.386810 421.271088,265.397919 
	C420.599731,266.958923 418.146759,268.489960 416.346039,268.720062 
	C381.812378,273.133331 351.318970,286.914398 324.897430,309.228577 
	C295.447723,334.100189 275.539032,365.303284 266.190521,402.917633 
	C264.667419,409.045898 263.639343,415.298035 262.411285,421.498627 
	C261.269684,427.262848 259.837433,428.340027 253.878983,427.816711 
	C247.692276,427.273346 246.083435,425.789154 246.061615,419.875488 
	C245.987183,399.718536 246.155212,379.559937 245.971741,359.404358 
	C245.834839,344.363190 245.985382,329.437286 251.391647,315.065521 
	C256.022797,302.754333 262.438873,291.593475 271.753296,281.758972 
z"/>
<path fill="#1B2141" opacity="1.000000" stroke="none" 
	d="
M283.589600,533.378296 
	C297.587555,558.207886 316.214294,578.364502 339.386047,594.203186 
	C361.573608,609.369263 386.083527,618.947571 412.676910,623.040405 
	C421.902161,624.460327 423.011902,626.069763 421.020355,635.197754 
	C420.339905,638.316345 418.672028,639.907410 415.559021,639.884644 
	C386.427185,639.671570 357.223236,640.612854 328.185883,638.837402 
	C303.316620,637.316833 283.169525,624.449402 267.285980,605.316833 
	C252.897293,587.984985 246.079178,567.859436 246.028992,545.412109 
	C245.975388,521.428162 245.999954,497.443878 246.033661,473.459839 
	C246.043839,466.216370 251.748734,462.017639 258.638336,464.667389 
	C260.336151,465.320343 261.806702,468.334320 262.150818,470.462006 
	C265.476501,491.022400 271.739136,510.591614 281.234711,529.126282 
	C281.917450,530.458923 282.672058,531.754639 283.589600,533.378296 
z"/>
<path fill="#1B2141" opacity="1.000000" stroke="none" 
	d="
M803.414673,471.478943 
	C790.984375,449.343781 804.005676,425.973663 823.343872,419.456421 
	C838.235657,414.437714 855.279480,420.367920 864.492554,434.246155 
	C873.073730,447.172485 871.321594,465.401245 861.631836,477.032501 
	C847.714661,493.738281 816.981873,494.566437 803.414673,471.478943 
z"/>
<path fill="#1B2141" opacity="1.000000" stroke="none" 
	d="
M10.408484,462.379822 
	C6.071249,442.497498 16.564783,426.301575 32.300694,420.379181 
	C46.352314,415.090668 59.382713,417.690460 70.226776,428.041016 
	C81.053947,438.375427 83.115799,451.271301 78.987381,465.313293 
	C74.948845,479.049561 60.067745,490.072693 43.580708,489.186646 
	C27.985929,488.348511 16.242748,479.596497 10.408484,462.379822 
z"/>
<path fill="#1B2140" opacity="1.000000" stroke="none" 
	d="
M45.807659,629.167908 
	C37.187370,617.223267 34.664982,604.495911 39.489269,590.190063 
	C37.302536,590.399414 35.761459,591.035767 34.807907,590.540588 
	C32.539738,589.362793 29.284843,587.972290 28.798164,586.063538 
	C28.299166,584.106323 30.016182,580.130005 31.810238,579.299866 
	C38.733055,576.096497 46.002686,573.561218 53.314514,571.341797 
	C54.966541,570.840332 58.150867,572.053284 59.100094,573.488647 
	C60.089409,574.984619 59.452667,577.742920 59.078850,579.870605 
	C58.904968,580.860352 57.691727,581.681885 56.915791,582.549316 
	C46.940601,593.701599 46.287525,609.511902 55.317303,621.416138 
	C59.635651,627.109131 65.348633,628.994324 72.088997,626.950623 
	C78.144753,625.114563 81.192917,621.167542 80.923317,613.585083 
	C80.622826,605.134216 79.888504,596.646973 78.576660,588.295959 
	C76.609375,575.772583 80.191772,564.958313 88.874969,559.638123 
	C102.079681,551.547546 119.599007,557.373108 126.700249,572.214722 
	C130.316055,579.771790 131.949783,587.632263 130.287323,595.980286 
	C129.573624,599.564148 129.210678,602.329529 134.547577,602.621033 
	C136.337982,602.718872 138.827988,606.181580 139.305649,608.460938 
	C139.624741,609.983582 137.355850,612.939392 135.542465,613.841492 
	C131.097427,616.052917 126.349060,617.928162 121.513992,618.968506 
	C119.041306,619.500610 115.206352,618.765808 113.693573,617.075989 
	C112.505089,615.748352 113.078964,611.535828 114.343285,609.536682 
	C121.323074,598.500183 121.222282,587.467163 114.768509,576.531006 
	C113.112419,573.724731 110.126816,571.029114 107.131042,569.815735 
	C98.696785,566.399292 91.619446,571.234314 91.630249,580.784546 
	C91.639420,588.891968 93.365875,596.982971 93.906860,605.109558 
	C94.244453,610.180969 94.378387,615.399170 93.577263,620.386658 
	C91.646980,632.403809 83.296211,638.189514 72.096642,640.323730 
	C61.157135,642.408203 52.576870,638.199768 45.807659,629.167908 
z"/>
<path fill="#1B2140" opacity="1.000000" stroke="none" 
	d="
M573.306335,784.230835 
	C576.747803,782.861389 579.796936,781.496399 582.952576,780.453552 
	C597.119263,775.771851 608.498596,780.530945 614.650757,794.148560 
	C618.828308,803.395569 622.326294,812.948242 626.200562,822.334290 
	C628.755310,828.523865 629.930664,829.219666 636.379761,827.885315 
	C639.766357,827.184631 642.490540,828.243225 642.922363,831.393311 
	C643.204895,833.454468 641.940430,836.807556 640.280518,837.851624 
	C635.385010,840.930725 629.667664,842.648438 624.200806,839.486572 
	C619.828979,836.958008 617.610535,838.526306 615.243713,842.082458 
	C608.285645,852.536865 598.302368,858.253540 586.025696,860.234558 
	C577.386597,861.628540 568.566895,857.355164 563.635803,849.326538 
	C558.667236,841.237183 558.926880,831.666199 564.464111,824.485962 
	C571.219116,815.726501 580.795959,811.615112 591.053711,808.766235 
	C594.577942,807.787537 598.191467,807.125183 601.773254,806.360901 
	C604.848938,805.704529 605.304077,804.006653 604.275635,801.210754 
	C601.093689,792.560608 594.916809,789.366211 586.123779,791.958496 
	C577.276245,794.566833 569.838989,799.429810 563.447510,805.993469 
	C560.712402,808.802246 557.919434,811.147278 554.144836,807.464355 
	C550.943359,804.340820 550.811829,801.318115 555.046265,797.723328 
	C560.710938,792.914429 566.963135,788.797546 573.306335,784.230835 
M582.307434,848.236023 
	C592.690735,849.175964 600.104797,843.659241 606.383972,836.494812 
	C609.036926,833.467773 611.009399,829.534607 612.271423,825.679504 
	C613.726440,821.234863 610.970215,816.568665 607.577515,816.955017 
	C597.086548,818.149658 586.982056,820.774353 578.074036,826.797607 
	C570.656372,831.813171 571.213257,846.062012 582.307434,848.236023 
z"/>
<path fill="#1B2140" opacity="1.000000" stroke="none" 
	d="
M315.361938,801.977539 
	C313.919800,800.913513 312.069489,800.362305 311.551239,799.211304 
	C310.635712,797.178101 309.652130,794.432129 310.359589,792.641235 
	C310.950500,791.145447 314.393646,789.317078 315.756714,789.825623 
	C323.846436,792.843811 331.819214,796.261047 339.517517,800.163147 
	C340.889557,800.858521 341.684631,804.740540 341.082611,806.617676 
	C340.621765,808.054565 337.190857,809.842712 335.683350,809.404114 
	C330.413757,807.871033 327.303345,810.539124 323.764557,813.596130 
	C305.122009,829.700745 286.550995,845.901306 267.511322,861.527832 
	C257.418945,869.810974 245.840866,873.883606 232.622528,868.632019 
	C228.864304,867.138855 225.901627,865.316528 227.071854,860.650757 
	C228.292648,855.783386 232.030334,855.611511 235.803253,856.751770 
	C248.852097,860.695435 258.497955,854.475952 267.113159,846.058838 
	C269.045410,844.171021 269.988007,840.348572 269.891632,837.466797 
	C269.491364,825.501404 268.502502,813.556152 267.764618,801.601318 
	C267.467468,796.787415 267.134766,791.970093 267.053162,787.150330 
	C266.992981,783.595398 266.206116,780.697205 262.896240,778.692871 
	C260.147156,777.027954 258.239075,774.565674 260.134033,771.182983 
	C262.047211,767.767639 265.240417,767.662964 268.426147,768.986084 
	C275.959625,772.114929 283.452667,775.347717 290.889374,778.699768 
	C293.973511,780.090027 296.400909,782.196472 294.692963,786.120483 
	C292.971405,790.075745 289.904297,790.098572 286.332825,788.888977 
	C279.271423,786.497559 278.694244,786.900879 279.080383,794.344666 
	C279.649109,805.308472 280.325348,816.267822 281.107117,827.218201 
	C281.214813,828.726379 282.189819,830.172668 282.763245,831.647583 
	C284.083862,831.109558 285.653625,830.864868 286.686188,829.987732 
	C295.818909,822.229492 304.902557,814.411011 313.857910,806.449768 
	C314.873749,805.546692 315.009796,803.653931 315.361938,801.977539 
z"/>
<path fill="#1B2140" opacity="1.000000" stroke="none" 
	d="
M820.444092,569.556396 
	C819.218079,574.169495 818.239441,578.564392 816.519287,582.646851 
	C811.283875,595.071899 805.772583,607.380859 800.347290,619.725525 
	C798.141296,624.745056 799.022644,626.314270 804.458130,626.885376 
	C815.914856,628.089172 823.724976,624.360901 828.153076,613.708252 
	C831.102051,606.613831 832.206360,598.739075 833.965271,591.173828 
	C834.370605,589.430176 834.060669,587.523315 834.106201,585.692200 
	C834.196106,582.072815 835.602722,579.430298 839.603394,579.363525 
	C843.700867,579.295105 845.884338,581.825195 845.819336,585.646301 
	C845.717834,591.612549 845.839905,597.745728 844.509644,603.493958 
	C841.774292,615.313538 837.306763,626.558167 826.816711,633.866577 
	C813.316650,643.271973 794.929626,641.659790 780.028564,629.617981 
	C769.271790,620.925110 764.210205,609.529175 766.947815,595.587585 
	C769.979980,580.145752 777.672729,567.920837 793.924133,564.369934 
	C800.609436,562.909241 808.033203,564.421509 815.055969,565.182739 
	C816.944214,565.387329 818.593445,567.797607 820.444092,569.556396 
M789.394104,578.778687 
	C782.979858,583.271729 779.906311,589.900269 778.419067,597.194580 
	C776.942627,604.435242 778.711487,611.090088 784.086548,616.476074 
	C786.389343,618.783508 788.548645,618.731689 789.936035,615.557800 
	C795.130066,603.675415 800.272888,591.770447 805.368408,579.845520 
	C806.816223,576.457214 804.898560,574.808105 801.881409,575.265198 
	C797.857727,575.874634 793.956909,577.294373 789.394104,578.778687 
z"/>
<path fill="#1B2140" opacity="1.000000" stroke="none" 
	d="
M102.296448,327.238342 
	C98.829796,331.006531 95.553566,334.465759 92.315331,337.884857 
	C92.418900,338.309021 92.388321,338.755890 92.590225,338.924683 
	C95.544746,341.394470 98.299927,344.024567 95.488815,348.155853 
	C92.846390,352.039185 89.328049,350.291412 86.037102,349.144501 
	C81.324623,347.502136 76.463005,346.141510 72.016884,343.947571 
	C70.026962,342.965668 67.357208,339.850922 67.731766,338.420441 
	C68.277084,336.337830 71.185005,333.575989 73.274048,333.404907 
	C87.431892,332.245300 93.898956,323.278015 97.281166,310.922150 
	C99.117378,304.214142 96.387840,297.531403 90.875603,294.560486 
	C84.710640,291.237732 79.574760,291.922394 74.582161,298.139404 
	C69.917686,303.947845 66.548370,310.785217 62.001564,316.702972 
	C58.510841,321.246246 54.662407,325.971771 49.942753,329.022034 
	C38.873249,336.176147 20.674744,326.574677 19.285521,312.166779 
	C18.247265,301.398804 20.234249,291.538940 28.624180,283.907013 
	C31.803549,281.014862 34.238258,278.495331 30.866051,273.895813 
	C29.923498,272.610199 30.648565,269.124207 31.829052,267.581390 
	C32.710804,266.429016 35.717091,266.135956 37.492355,266.585510 
	C41.830341,267.683990 46.172024,269.093811 50.168541,271.072418 
	C52.068451,272.013062 54.571495,274.774933 54.313732,276.287994 
	C53.968124,278.316742 51.514641,280.925201 49.438709,281.560059 
	C39.737041,284.526855 33.997952,291.076782 31.138216,300.404083 
	C30.330276,303.039215 30.016710,305.991791 30.232689,308.739319 
	C30.639370,313.912842 33.751133,317.191284 38.698341,318.723206 
	C43.220791,320.123657 46.701653,318.182404 49.116241,314.724579 
	C53.589596,308.318542 57.565784,301.567291 61.957912,295.101715 
	C63.905178,292.235168 66.101936,289.434235 68.635246,287.089508 
	C75.737396,280.516022 83.891006,278.660889 93.064011,282.458313 
	C101.544777,285.969147 107.018074,291.937347 108.446716,301.188080 
	C109.891846,310.545532 107.165466,318.971924 102.296448,327.238342 
z"/>
<path fill="#1B2140" opacity="1.000000" stroke="none" 
	d="
M618.654297,129.558929 
	C617.650146,132.912338 615.455017,133.698105 612.697266,132.967377 
	C607.705200,131.644592 603.120422,129.357056 601.205322,124.271889 
	C599.714233,120.312561 597.722107,119.543221 593.661865,120.297791 
	C583.315491,122.220612 573.437561,120.670448 564.581604,114.546860 
	C556.491089,108.952522 551.396179,98.670891 556.701355,87.983215 
	C561.156433,79.007996 571.032043,73.664391 581.331482,76.807442 
	C589.502441,79.300957 597.338562,83.129662 604.979919,87.037117 
	C610.107849,89.659248 610.661011,89.904243 612.668274,84.314835 
	C614.870667,78.182083 612.983398,73.375809 607.355835,69.902344 
	C599.959351,65.337067 591.649414,64.813049 583.358582,64.075279 
	C581.869812,63.942799 580.066772,64.214981 578.976379,63.469818 
	C577.363037,62.367279 575.451050,60.647942 575.185547,58.953178 
	C574.964294,57.541286 576.780701,55.660130 577.992676,54.241360 
	C578.542297,53.597969 579.806641,53.326691 580.758057,53.300655 
	C595.697327,52.891907 609.700928,55.470325 620.400391,67.054161 
	C625.518982,72.595840 625.944092,79.455231 623.616211,86.267578 
	C620.712952,94.763916 617.341980,103.104942 614.022217,111.453087 
	C611.268616,118.377625 611.446228,119.147644 616.665833,124.426079 
	C617.799988,125.573013 618.057922,127.586380 618.654297,129.558929 
M600.630493,95.819946 
	C593.559937,93.017181 586.655640,89.612946 579.367188,87.598671 
	C573.349915,85.935684 568.513977,89.306282 566.706360,94.658798 
	C565.204346,99.106567 567.145325,103.674950 572.264404,106.795357 
	C580.643616,111.902985 589.681824,112.376602 598.695129,109.138168 
	C601.290039,108.205826 604.153931,105.487503 604.950195,102.972458 
	C605.483093,101.289505 602.584534,98.520103 600.630493,95.819946 
z"/>
<path fill="#1B2140" opacity="1.000000" stroke="none" 
	d="
M121.422302,740.349976 
	C115.374199,716.210144 135.829025,694.789673 155.392654,692.693848 
	C174.148392,690.684631 192.316956,703.529419 195.905029,722.074219 
	C196.119995,723.185242 196.495407,724.265137 196.855255,725.574646 
	C197.843079,725.498047 198.721909,725.642761 199.403351,725.341309 
	C202.831436,723.824707 205.606842,724.532715 207.643127,727.658447 
	C209.728729,730.859924 208.157776,733.400269 205.846481,735.600525 
	C201.026154,740.189331 196.132050,744.700867 191.253510,749.228210 
	C188.947601,751.368103 186.466980,752.392700 183.749374,749.946106 
	C181.035172,747.502563 180.654205,744.700928 182.333832,741.399292 
	C183.969147,738.184753 186.465607,734.841431 186.545273,731.505920 
	C186.813736,720.265076 180.128372,712.976990 170.822144,707.913147 
	C162.172272,703.206543 153.462112,704.356873 145.874710,709.971924 
	C138.842972,715.175720 133.012222,721.652527 133.006943,731.410400 
	C132.999741,744.735229 141.411835,752.188049 151.731720,758.141602 
	C155.154694,760.116394 159.056824,761.312866 162.823730,762.624390 
	C166.517136,763.910339 168.638824,766.047913 167.326950,770.093933 
	C166.017471,774.132568 163.017502,775.474243 159.034851,774.221924 
	C141.508713,768.710938 127.570564,759.138306 121.422302,740.349976 
z"/>
<path fill="#1B2140" opacity="1.000000" stroke="none" 
	d="
M787.865723,344.154541 
	C783.158264,336.534363 777.837952,329.552765 774.415283,321.739838 
	C767.580688,306.138672 771.905334,292.702271 785.901001,282.919037 
	C793.200745,277.816376 801.593201,274.950226 810.349487,275.661285 
	C832.666016,277.473541 847.499390,300.702454 840.177551,321.908752 
	C837.064209,330.925995 829.945923,336.439270 821.666016,340.513031 
	C818.467346,342.086792 816.617981,340.166077 815.433960,337.452087 
	C812.974121,331.813721 810.594421,326.140198 808.200378,320.473267 
	C804.964539,312.813568 801.823975,305.112579 798.495544,297.493530 
	C795.867859,291.478455 793.691956,291.138672 788.963928,295.441895 
	C782.731995,301.113983 780.376038,308.206604 783.812439,315.733978 
	C787.213623,323.184143 792.167480,329.931122 796.524536,336.934174 
	C797.302917,338.185242 799.014404,339.038422 799.366516,340.328766 
	C799.878967,342.206268 800.356079,345.026672 799.371826,346.141571 
	C798.160706,347.513367 795.312500,348.267059 793.391602,347.951385 
	C791.489197,347.638733 789.860107,345.663269 787.865723,344.154541 
M807.713440,292.877930 
	C811.766846,302.517700 815.827148,312.154572 819.870850,321.798431 
	C822.003784,326.885315 823.840271,327.069122 827.422791,322.798279 
	C831.584412,317.837006 831.480591,312.042236 830.742554,306.228119 
	C829.499512,296.436432 820.372925,287.332428 811.864075,287.116913 
	C808.427368,287.029846 805.568237,287.607819 807.713440,292.877930 
z"/>
<path fill="#1B2140" opacity="1.000000" stroke="none" 
	d="
M238.622131,76.568436 
	C240.258469,75.016136 241.625946,73.463684 243.343750,72.660568 
	C249.678207,69.699043 256.131287,66.991600 262.534271,64.176102 
	C265.540771,62.854076 268.205750,63.199551 269.846191,66.211273 
	C271.600342,69.431763 269.835388,71.480621 267.088470,73.134766 
	C260.692200,76.986511 260.731934,77.119576 266.375427,81.785179 
	C273.820587,87.940277 281.208069,94.165062 288.643372,100.332108 
	C289.753174,101.252609 290.988800,102.021454 292.604797,103.172974 
	C293.174225,101.620560 293.828430,100.621361 293.872375,99.595993 
	C294.314484,89.285156 294.631378,78.969032 295.039124,68.656601 
	C295.198456,64.626266 294.242340,62.400211 289.333893,63.025894 
	C287.639984,63.241817 284.663055,61.121151 284.020416,59.410915 
	C283.505951,58.041821 285.140411,54.745529 286.683777,53.922859 
	C292.400421,50.875671 298.428711,48.387657 304.434540,45.919853 
	C307.179718,44.791847 310.165314,44.587963 311.886963,47.756207 
	C313.558411,50.832062 311.845001,52.799896 309.635925,55.063248 
	C307.858795,56.884033 306.283447,59.734505 306.160553,62.204830 
	C305.209290,81.322342 304.840820,100.469460 303.833069,119.583221 
	C303.458160,126.693962 302.367920,133.863708 300.687592,140.784058 
	C298.650024,149.175446 293.011658,155.053268 285.135040,158.607651 
	C282.191711,159.935837 279.197723,160.189819 277.291748,156.814789 
	C275.362671,153.398834 276.446472,150.452728 279.654755,148.749741 
	C290.897003,142.782379 292.671722,132.592026 291.844208,121.440010 
	C291.656586,118.911522 290.195984,115.826836 288.296204,114.182579 
	C276.713684,104.157875 264.931396,94.354591 252.958557,84.799728 
	C251.017181,83.250427 247.796967,82.768784 245.160278,82.747795 
	C240.944443,82.714241 238.276932,81.670670 238.622131,76.568436 
z"/>
<path fill="#1B2140" opacity="1.000000" stroke="none" 
	d="
M689.294678,706.702148 
	C686.715698,703.845276 684.306396,701.304993 682.075562,698.616455 
	C679.354797,695.337585 676.569946,695.262512 673.579712,698.128418 
	C670.453003,701.125061 667.394165,704.193542 664.233521,707.153625 
	C661.745850,709.483459 659.153137,711.951599 655.632141,708.791443 
	C652.639221,706.105225 652.773071,702.814636 656.353516,699.300049 
	C662.174072,693.586609 668.114746,687.988831 674.159424,682.513062 
	C677.948792,679.080444 681.165649,679.798950 685.295471,684.160400 
	C702.467285,702.294922 719.661072,720.409119 736.938965,738.442566 
	C743.253540,745.033325 743.528625,744.906189 749.966980,738.590698 
	C753.413757,735.209717 756.832520,731.789612 760.445679,728.592468 
	C762.873901,726.443848 765.691162,725.445312 768.422241,728.263794 
	C771.280518,731.213501 770.402466,734.079895 767.808105,736.566589 
	C753.504150,750.276550 739.163147,763.947998 724.790405,777.585815 
	C722.310120,779.939270 719.449951,780.583191 716.866699,777.804199 
	C714.409241,775.160400 714.769287,772.141785 717.132202,769.724976 
	C720.851318,765.920776 724.941467,762.482483 728.739746,758.751953 
	C733.480713,754.095398 733.582153,753.239258 729.156677,748.550903 
	C716.013611,734.627075 702.756165,720.811157 689.294678,706.702148 
z"/>
<path fill="#1B2140" opacity="1.000000" stroke="none" 
	d="
M145.970612,198.159973 
	C162.402740,205.874680 178.138809,197.499222 183.323486,178.603882 
	C183.939819,176.357742 183.856766,173.711487 185.064957,171.893311 
	C186.325760,169.995972 188.687531,167.784348 190.690964,167.657822 
	C194.184189,167.437210 196.439743,170.605881 195.614655,173.749756 
	C193.858200,180.442474 191.467789,187.009201 188.801636,193.404282 
	C187.621353,196.235321 185.300415,198.664566 183.222092,201.034927 
	C173.258240,212.398911 159.125031,216.030304 145.180542,210.942673 
	C132.445358,206.296249 121.157097,191.538849 121.451767,178.454575 
	C121.772354,164.219528 130.644165,150.033081 144.692383,146.237915 
	C148.204102,145.289215 149.376709,144.098892 148.011856,140.319672 
	C147.496399,138.892334 148.815674,135.942123 150.204834,134.930496 
	C151.579086,133.929718 154.823120,133.595612 155.988251,134.533234 
	C161.412369,138.898270 166.642090,143.581253 171.369125,148.680893 
	C172.510437,149.912170 172.334396,153.848801 171.189133,155.287979 
	C170.095139,156.662704 166.559036,157.403259 164.767746,156.703644 
	C152.131638,151.768524 144.107407,153.790634 137.327591,164.809784 
	C130.710373,175.564682 131.951385,185.052338 141.648361,195.013580 
	C142.791199,196.187531 144.305435,196.999954 145.970612,198.159973 
z"/>
<path fill="#1B2140" opacity="1.000000" stroke="none" 
	d="
M428.852356,4.341974 
	C429.305084,4.351153 429.757782,4.360332 430.546021,4.399228 
	C431.606262,9.132770 432.750366,13.816776 432.973816,18.544294 
	C433.548065,30.694828 434.745361,31.844332 446.956024,30.804417 
	C451.757294,30.395519 456.585602,30.206469 461.404724,30.138086 
	C464.747070,30.090656 467.460114,31.399115 467.471771,35.241299 
	C467.483154,38.992840 464.650116,39.754768 461.611908,39.922478 
	C454.800201,40.298470 447.987091,40.653919 441.172058,40.963150 
	C435.285217,41.230270 433.934235,42.333057 434.058044,48.057308 
	C434.227051,55.872765 434.567017,63.694588 435.171631,71.487457 
	C435.680237,78.042252 440.400543,82.277504 447.043915,81.536064 
	C451.895935,80.994537 456.634735,79.203751 461.343933,77.716286 
	C463.698242,76.972641 465.825867,74.982239 468.144409,74.820160 
	C470.028381,74.688461 472.943298,75.966812 473.749207,77.492424 
	C474.559326,79.025993 474.092072,82.780869 472.871063,83.596893 
	C462.834778,90.304352 452.002716,95.137192 439.566589,92.001083 
	C428.605438,89.236908 423.631042,81.724785 423.135529,68.213264 
	C422.885376,61.392990 422.918091,54.556564 423.030090,47.730843 
	C423.103119,43.283230 421.439362,41.249313 416.768585,41.781296 
	C414.147461,42.079830 411.199860,42.399395 408.868774,41.496929 
	C406.782532,40.689270 404.071106,38.277367 403.988068,36.465458 
	C403.912598,34.819031 406.734467,32.486332 408.782288,31.464138 
	C410.548370,30.582579 413.030731,30.958015 415.182465,31.063177 
	C420.035614,31.300362 422.283875,29.191332 422.074310,24.263542 
	C421.911713,20.440102 421.833160,16.587626 422.124268,12.779171 
	C422.322845,10.181549 423.223053,7.637561 423.968201,4.749581 
	C424.579376,4.400818 425.031830,4.372063 426.045471,4.392253 
	C427.355194,4.408123 428.103790,4.375048 428.852356,4.341974 
z"/>
<path fill="#1B2140" opacity="1.000000" stroke="none" 
	d="
M734.274414,159.274384 
	C739.812561,153.714005 745.005127,148.303497 750.424805,143.130890 
	C753.778748,139.929779 754.085449,137.146790 750.529663,133.928375 
	C747.694153,131.361862 745.049377,128.575165 742.426819,125.785690 
	C740.118042,123.329834 739.266602,120.444160 741.840698,117.784714 
	C744.511841,115.025002 747.030212,116.790985 749.222168,118.815521 
	C754.234131,123.444656 759.323547,128.000977 764.138062,132.829666 
	C768.730469,137.435654 768.628479,139.648911 764.251221,144.207291 
	C748.226318,160.895172 732.192627,177.574600 716.150146,194.245590 
	C711.929016,198.632065 711.878967,199.339539 716.033752,203.582031 
	C719.412781,207.032379 722.860291,210.415436 726.255432,213.850159 
	C728.720520,216.344055 729.329285,218.965469 726.590393,221.682510 
	C723.797974,224.452606 721.512146,222.940933 719.297913,220.785660 
	C707.130066,208.942047 694.953430,197.107468 682.789795,185.259598 
	C682.076172,184.564468 681.397400,183.819901 680.791992,183.029709 
	C678.907043,180.569092 678.548584,177.627563 681.227295,176.065155 
	C682.806763,175.143860 686.102783,175.443222 687.663574,176.550888 
	C691.572266,179.324783 694.971252,182.829880 698.502258,186.119461 
	C703.030518,190.338074 704.333740,190.295395 708.705627,185.748428 
	C717.127075,176.989624 725.583069,168.264084 734.274414,159.274384 
z"/>
<path fill="#1B2140" opacity="1.000000" stroke="none" 
	d="
M244.656982,451.519165 
	C242.409439,451.873779 240.609726,452.200653 238.798706,452.443024 
	C232.682419,453.261444 230.956863,451.682892 231.121490,445.470856 
	C231.257797,440.327240 232.512665,439.344940 237.449478,439.833160 
	C252.474152,441.318970 267.512451,442.666321 282.540436,444.119598 
	C284.251923,444.285095 285.931458,444.780670 287.644836,446.061279 
	C273.549622,449.022583 259.340637,450.356354 244.656982,451.519165 
z"/>
<path fill="#1B2140" opacity="1.000000" stroke="none" 
	d="
M434.984924,635.907654 
	C436.211975,623.144043 437.421173,610.840515 438.630371,598.536987 
	C439.186432,598.453552 439.742462,598.370056 440.298523,598.286560 
	C440.821350,599.949890 441.649109,601.582581 441.819366,603.281189 
	C443.344727,618.500549 444.653381,633.742188 446.263062,648.952148 
	C446.711517,653.189697 445.065857,654.732300 441.100037,654.892273 
	C435.223511,655.129395 433.036530,653.744568 433.366882,649.240295 
	C433.682770,644.933472 434.416779,640.657349 434.984924,635.907654 
z"/>
<path fill="#1B2140" opacity="1.000000" stroke="none" 
	d="
M433.782288,246.324554 
	C434.106812,243.580811 433.879974,239.711761 435.018829,239.256088 
	C437.725311,238.173218 441.129242,238.359894 444.138336,238.802246 
	C445.014893,238.931107 446.195312,241.710022 446.074860,243.178894 
	C444.797668,258.751282 443.306702,274.306427 441.800903,289.859222 
	C441.672668,291.183777 441.014435,292.457031 440.602386,293.754120 
	C439.978516,293.730988 439.354614,293.707855 438.730743,293.684692 
	C437.104401,278.040131 435.478088,262.395538 433.782288,246.324554 
z"/>
<path fill="#1B2140" opacity="1.000000" stroke="none" 
	d="
M605.339478,448.521301 
	C600.722046,448.077850 596.550171,447.704956 592.378357,447.332062 
	C592.315247,446.764740 592.252197,446.197449 592.189148,445.630127 
	C593.702820,445.128357 595.186829,444.323883 596.734863,444.171814 
	C611.764343,442.695038 626.799377,441.264648 641.848938,440.014740 
	C643.582703,439.870758 646.781494,440.619385 646.954651,441.445801 
	C647.573059,444.397125 647.611694,447.661285 646.928345,450.587219 
	C646.697937,451.573730 643.601868,452.582977 641.921814,452.428070 
	C629.860901,451.316040 617.827393,449.906799 605.339478,448.521301 
z"/>
<path fill="#282828" opacity="1.000000" stroke="none" 
	d="
M428.517365,4.311069 
	C428.103790,4.375048 427.355194,4.408123 426.387207,4.389738 
	C426.839294,4.318907 427.510834,4.299536 428.517365,4.311069 
z"/>
<path fill="#272829" opacity="1.000000" stroke="none" 
	d="
M478.424988,344.546234 
	C471.484406,340.953644 464.766937,337.690857 458.212921,334.127502 
	C456.365356,333.122955 453.654877,331.210907 453.683716,329.761749 
	C453.746490,326.608459 454.883179,323.225159 456.516052,320.495148 
	C457.064240,319.578674 460.599915,319.853485 462.508606,320.437866 
	C483.069519,326.732483 498.515228,339.410736 509.054993,358.143127 
	C515.845093,370.211304 518.793579,383.328217 518.891663,396.974243 
	C519.128967,429.968903 519.247437,462.970520 518.772339,495.960052 
	C518.649475,504.495392 516.309998,513.025330 514.683105,521.499084 
	C514.046021,524.817444 512.282532,527.449951 507.998810,526.178162 
	C501.307617,524.191528 499.060974,521.872742 500.665741,517.331543 
	C503.903564,508.169312 504.117798,498.759003 504.086182,489.221741 
	C503.985016,458.725342 503.907166,428.227509 504.095612,397.731964 
	C504.230804,375.852264 495.571259,358.393219 478.424988,344.546234 
z"/>
<path fill="#272829" opacity="1.000000" stroke="none" 
	d="
M446.971741,428.000000 
	C446.969025,418.339569 447.012238,409.178802 446.950592,400.018768 
	C446.892914,391.451782 444.570038,389.127319 435.877625,389.015869 
	C428.717133,388.924072 421.552521,388.902588 414.393250,389.037628 
	C406.775055,389.181335 404.112579,391.734009 404.053833,399.348328 
	C403.913788,417.501587 404.023132,435.656677 403.934174,453.810547 
	C403.905670,459.627930 402.446777,460.948303 396.866669,460.915009 
	C391.398987,460.882385 390.024567,459.556396 390.005676,453.582825 
	C389.944550,434.262848 389.889313,414.941895 390.025238,395.622681 
	C390.109863,383.591705 398.409760,375.258423 410.434235,375.025879 
	C420.090820,374.839050 429.753876,374.919495 439.413544,374.975922 
	C452.582550,375.052917 460.678467,382.761688 460.946777,395.962433 
	C461.220856,409.447876 461.043915,422.942688 461.049866,436.433380 
	C461.056458,451.423187 461.082855,466.413116 461.027496,481.402740 
	C461.002350,488.209717 455.594025,491.677917 449.715302,488.267181 
	C448.122772,487.343231 447.131256,484.137085 447.102600,481.962158 
	C446.885620,465.476166 446.976959,448.986115 446.972168,432.497345 
	C446.971802,431.164886 446.971954,429.832458 446.971741,428.000000 
z"/>
<path fill="#272829" opacity="1.000000" stroke="none" 
	d="
M387.286926,337.272369 
	C400.075775,325.670197 414.999298,319.681366 431.583527,317.446381 
	C437.812561,316.606934 439.468292,317.578369 439.921692,322.181732 
	C440.677002,329.850555 439.570587,331.468719 433.191101,332.024994 
	C405.378571,334.450226 381.219391,355.954651 376.975464,383.505127 
	C375.088806,395.752899 375.467255,408.367340 375.088776,420.823608 
	C374.820648,429.646576 374.963867,438.483582 375.008667,447.313904 
	C375.033112,452.131195 372.130219,453.055145 368.114044,453.028259 
	C364.235260,453.002289 360.987457,452.454620 361.031128,447.525238 
	C361.205109,427.873962 360.799896,408.195251 361.721008,388.578918 
	C362.681152,368.129639 372.150482,351.345978 387.286926,337.272369 
z"/>
<path fill="#272829" opacity="1.000000" stroke="none" 
	d="
M378.711487,516.214600 
	C387.785767,544.604797 416.312317,563.265076 445.798645,560.404480 
	C451.829834,559.819397 456.356140,564.907410 454.429779,570.746277 
	C453.895477,572.365601 451.157593,574.032227 449.239777,574.297791 
	C434.365479,576.356934 419.952545,574.257629 406.438538,567.739929 
	C383.796173,556.819702 369.406982,538.922424 363.141571,514.600708 
	C362.110931,510.599945 361.837494,506.396759 361.318054,502.274017 
	C360.923798,499.144928 361.511658,496.331726 365.367279,496.220917 
	C369.144440,496.112396 373.828064,494.571411 375.222656,500.232544 
	C376.494629,505.396118 377.481995,510.629791 378.711487,516.214600 
z"/>
<path fill="#272829" opacity="1.000000" stroke="none" 
	d="
M461.927673,503.048218 
	C464.078644,503.024780 465.743103,503.000031 467.407593,502.978210 
	C472.446136,502.912079 475.176147,500.136322 475.596710,495.347839 
	C475.988892,490.882782 475.936829,486.372192 475.947144,481.881317 
	C475.985046,465.399658 475.930298,448.917725 475.989075,432.436157 
	C476.012787,425.783813 481.729553,422.348480 487.463104,425.693481 
	C488.725311,426.429840 489.807495,428.644501 489.815918,430.184723 
	C489.940826,452.990479 490.157654,475.802826 489.714233,498.601227 
	C489.519440,508.614929 481.075043,516.672729 470.406921,517.544678 
	C461.971497,518.234070 453.444153,517.869812 444.958069,517.841248 
	C440.205139,517.825256 439.972504,514.375671 440.005524,510.830994 
	C440.039154,507.218445 439.950378,503.409821 444.964050,503.213318 
	C450.450134,502.998322 455.948273,503.090118 461.927673,503.048218 
z"/>
<path fill="#272829" opacity="1.000000" stroke="none" 
	d="
M455.662598,532.069458 
	C461.233459,532.040771 462.053772,535.320190 461.884369,539.449158 
	C461.728607,543.245300 460.945801,546.679321 456.276886,546.796692 
	C443.450867,547.119019 430.459045,547.769775 418.575745,541.756958 
	C400.664520,532.694031 390.367126,518.400574 389.995880,497.825226 
	C389.887756,491.833160 390.026245,485.836884 390.024200,479.842560 
	C390.022583,475.116211 392.926788,474.069672 396.951141,474.068207 
	C400.947510,474.066772 403.914856,475.020172 403.920990,479.781342 
	C403.927429,484.776550 403.911560,489.772949 404.012634,494.766663 
	C404.464203,517.076721 419.445404,531.863098 441.720001,532.017578 
	C446.215759,532.048767 450.711761,532.042114 455.662598,532.069458 
z"/>
<path fill="#272829" opacity="1.000000" stroke="none" 
	d="
M489.980591,402.802612 
	C489.462830,409.182220 488.461517,410.102997 482.644623,410.011627 
	C477.223022,409.926453 476.072205,408.828674 475.997894,403.085999 
	C475.889343,394.694672 475.324951,386.348389 471.131104,378.870911 
	C464.290619,366.674438 453.588654,360.567322 439.694855,360.065643 
	C434.374390,359.873566 429.042145,359.920776 423.716644,359.981781 
	C418.878296,360.037201 417.970978,357.101562 418.024017,353.102051 
	C418.077850,349.045959 418.154968,344.824066 423.719269,345.193512 
	C433.977295,345.874603 444.464783,345.864166 454.393555,348.151825 
	C473.758148,352.613556 489.089478,372.749542 489.915771,392.847656 
	C490.045593,396.005646 489.967773,399.172150 489.980591,402.802612 
z"/>
<path fill="#272829" opacity="1.000000" stroke="none" 
	d="
M432.780701,435.562988 
	C432.872223,453.790771 432.960083,471.582489 432.911591,489.373840 
	C432.896088,495.059052 431.667175,496.010864 425.520752,496.019257 
	C419.350311,496.027679 418.108521,495.073578 418.081604,489.432007 
	C417.999939,472.305054 418.041260,455.177399 418.064148,438.050079 
	C418.068268,434.958130 418.220184,431.551483 422.295532,431.372986 
	C426.124481,431.205292 430.947662,429.233093 432.780701,435.562988 
z"/>
<path fill="#272829" opacity="1.000000" stroke="none" 
	d="
M467.903717,554.670532 
	C475.027954,549.031433 481.957306,543.682556 488.765503,538.183594 
	C491.868530,535.677307 494.684326,536.396606 499.438080,540.928284 
	C502.204712,543.565674 501.697540,546.012329 499.214294,548.138428 
	C492.688049,553.726013 486.173431,559.357727 479.281799,564.469727 
	C477.202881,566.011841 472.607788,567.348328 471.417877,566.277039 
	C468.405914,563.565369 465.796082,559.697144 467.903717,554.670532 
z"/>
<path fill="#272829" opacity="1.000000" stroke="none" 
	d="
M431.988342,415.849792 
	C428.270081,416.668671 424.631561,417.987915 421.313904,417.422913 
	C416.801147,416.654358 418.261658,412.238434 418.104431,409.113342 
	C417.963135,406.305023 418.530548,403.865448 422.007935,403.165863 
	C430.594086,401.438446 433.581543,403.963531 432.852234,412.609802 
	C432.769745,413.587738 432.431000,414.544067 431.988342,415.849792 
z"/>
<path fill="#272829" opacity="1.000000" stroke="none" 
	d="
M361.162415,477.530579 
	C360.885895,469.208740 361.760162,468.029968 367.862885,467.991760 
	C373.838135,467.954346 375.110779,469.254883 375.009979,475.334045 
	C374.962006,478.226654 374.937683,481.439514 371.128845,481.715149 
	C367.404205,481.984772 362.869507,483.507172 361.162415,477.530579 
z"/>
<path fill="#272829" opacity="1.000000" stroke="none" 
	d="
M581.932861,848.141663 
	C571.213257,846.062012 570.656372,831.813171 578.074036,826.797607 
	C586.982056,820.774353 597.086548,818.149658 607.577515,816.955017 
	C610.970215,816.568665 613.726440,821.234863 612.271423,825.679504 
	C611.009399,829.534607 609.036926,833.467773 606.383972,836.494812 
	C600.104797,843.659241 592.690735,849.175964 581.932861,848.141663 
z"/>
<path fill="#272829" opacity="1.000000" stroke="none" 
	d="
M789.698730,578.572388 
	C793.956909,577.294373 797.857727,575.874634 801.881409,575.265198 
	C804.898560,574.808105 806.816223,576.457214 805.368408,579.845520 
	C800.272888,591.770447 795.130066,603.675415 789.936035,615.557800 
	C788.548645,618.731689 786.389343,618.783508 784.086548,616.476074 
	C778.711487,611.090088 776.942627,604.435242 778.419067,597.194580 
	C779.906311,589.900269 782.979858,583.271729 789.698730,578.572388 
z"/>
<path fill="#272829" opacity="1.000000" stroke="none" 
	d="
M600.926025,96.028412 
	C602.584534,98.520103 605.483093,101.289505 604.950195,102.972458 
	C604.153931,105.487503 601.290039,108.205826 598.695129,109.138168 
	C589.681824,112.376602 580.643616,111.902985 572.264404,106.795357 
	C567.145325,103.674950 565.204346,99.106567 566.706360,94.658798 
	C568.513977,89.306282 573.349915,85.935684 579.367188,87.598671 
	C586.655640,89.612946 593.559937,93.017181 600.926025,96.028412 
z"/>
<path fill="#272829" opacity="1.000000" stroke="none" 
	d="
M807.566223,292.544342 
	C805.568237,287.607819 808.427368,287.029846 811.864075,287.116913 
	C820.372925,287.332428 829.499512,296.436432 830.742554,306.228119 
	C831.480591,312.042236 831.584412,317.837006 827.422791,322.798279 
	C823.840271,327.069122 822.003784,326.885315 819.870850,321.798431 
	C815.827148,312.154572 811.766846,302.517700 807.566223,292.544342 
z"/>
</svg>