<svg version="1.1" id="Layer_1" xmlns="http://www.w3.org/2000/svg" xmlns:xlink="http://www.w3.org/1999/xlink" x="0px" y="0px"
	 width="100%" viewBox="0 0 1500 534" enable-background="new 0 0 1500 534" xml:space="preserve">
<path fill="#4C6971" opacity="1.000000" stroke="none" 
	d="
M1047.000000,535.000000 
	C698.042725,535.000000 349.585510,535.000000 1.064124,535.000000 
	C1.064124,357.064606 1.064124,179.129181 1.064124,1.096876 
	C501.000000,1.096876 1001.000000,1.096876 1500.971680,1.096876 
	C1500.971680,179.081467 1500.971680,357.040741 1500.971680,535.000000 
	C1349.795532,535.000000 1198.647827,535.000000 1047.000000,535.000000 
M186.438721,210.937454 
	C177.061386,223.453049 172.080704,237.772186 169.220276,252.956573 
	C168.459274,256.996368 169.520905,259.346832 174.288376,259.084686 
	C176.718918,258.950989 179.242065,259.536987 181.636871,260.140747 
	C182.762680,260.424530 184.196152,261.298553 184.617828,262.279907 
	C188.159958,270.523651 184.300430,276.531555 175.340027,276.981201 
	C175.173767,276.989563 175.006851,276.984222 174.840515,276.991394 
	C168.996567,277.243591 168.474380,278.124237 169.450882,283.952087 
	C173.522415,308.251221 185.318726,328.211487 203.797348,344.161285 
	C218.065247,356.476532 234.838196,363.800354 253.450211,366.845093 
	C257.032471,367.431091 259.201569,366.491302 259.070740,362.215240 
	C258.990845,359.604645 259.538208,356.930115 260.142365,354.363983 
	C260.406830,353.240662 261.297058,351.804626 262.278259,351.382538 
	C270.516876,347.838562 276.531677,351.700989 276.980499,360.658264 
	C276.997162,360.990784 277.032318,361.328796 276.994049,361.656677 
	C276.446960,366.342896 278.868988,367.468292 282.987579,366.803680 
	C324.944946,360.032928 358.556793,327.327484 366.058533,285.939850 
	C367.530121,277.820984 367.526978,277.848511 359.220642,276.901825 
	C357.413849,276.695862 355.546783,276.444305 353.881500,275.778503 
	C352.823303,275.355469 351.601532,274.278717 351.280884,273.239655 
	C348.375885,263.825928 351.489532,259.427948 361.161011,259.010345 
	C361.493744,258.995972 361.830566,258.962738 362.159637,258.996063 
	C366.367188,259.422211 367.454315,257.146118 366.853180,253.507202 
	C363.166290,231.189178 353.547333,211.745895 337.333160,196.027115 
	C323.456390,182.574341 306.705872,173.972565 287.645264,170.137161 
	C278.276306,168.251907 278.429047,168.284119 276.746246,177.540482 
	C276.288300,180.059448 275.180969,183.775879 273.378754,184.512100 
	C264.559113,188.114944 259.439789,184.472610 259.014343,175.057053 
	C258.999329,174.724396 258.965179,174.387161 259.000366,174.058533 
	C259.479584,169.582703 257.086151,168.520081 253.227127,169.177902 
	C225.520325,173.900894 203.439850,187.698013 186.438721,210.937454 
M713.523132,222.038376 
	C715.665039,226.958710 719.678345,227.851440 724.286438,226.613434 
	C728.749817,225.414337 729.049255,221.649307 729.013245,217.793167 
	C728.951111,211.129623 728.933838,204.464340 729.015747,197.801239 
	C729.070190,193.367813 728.055237,189.814621 722.921753,189.089020 
	C717.149597,188.273163 714.198730,190.182999 712.617737,195.694885 
	C712.227600,197.054947 711.773193,198.396561 711.203308,200.207565 
	C701.064514,191.703537 689.651611,188.143555 677.111145,189.102295 
	C663.717896,190.126236 651.577393,194.169113 644.504822,206.902267 
	C636.325378,221.628159 638.047241,242.816666 656.995361,250.808319 
	C664.862488,254.126389 673.491272,255.623047 681.746399,258.040955 
	C690.302673,260.547089 699.281128,262.200836 707.256287,265.962860 
	C719.030151,271.516754 719.471069,288.754974 708.736267,296.117401 
	C696.903931,304.232574 674.006287,302.691559 664.127319,292.349030 
	C659.635925,287.646881 656.498413,281.604492 653.015991,276.002716 
	C650.832703,272.490753 647.895447,271.364685 644.125916,272.242249 
	C640.526062,273.080322 639.031189,275.695404 639.031006,279.268616 
	C639.030518,289.764435 638.934326,300.261597 639.077209,310.755463 
	C639.142151,315.521301 641.098999,316.938446 646.674133,316.988007 
	C652.764648,317.042175 654.608032,315.701080 654.960205,310.911713 
	C655.122009,308.710480 655.225769,306.505035 655.403992,303.486542 
	C658.137878,305.780945 659.880005,307.595062 661.938599,308.915649 
	C680.224121,320.645599 699.062439,320.007294 717.749390,310.367279 
	C725.332214,306.455475 730.284180,299.687927 732.460388,291.106018 
	C737.327454,271.912415 730.059082,253.986298 709.381042,247.306915 
	C703.872253,245.527451 698.127930,244.488876 692.525635,242.983932 
	C683.269897,240.497604 673.881714,238.362549 664.864258,235.185791 
	C659.785461,233.396606 656.527710,228.880188 657.161316,223.007187 
	C658.016541,215.078354 662.121216,209.483429 669.961060,206.890564 
	C684.445129,202.100220 703.687500,207.004623 713.523132,222.038376 
M1174.550415,235.991684 
	C1182.526489,234.670090 1190.499390,232.275497 1198.479126,232.252350 
	C1214.629028,232.205536 1222.100098,242.521408 1218.073242,258.401489 
	C1216.216431,258.036896 1214.306030,257.731934 1212.430420,257.282471 
	C1195.823853,253.303055 1179.248901,252.069351 1163.158447,259.171173 
	C1153.209595,263.562286 1146.991699,271.191254 1146.042358,282.393768 
	C1144.961792,295.145447 1148.487793,305.712158 1160.462891,312.206848 
	C1172.479248,318.723877 1185.231201,318.662781 1197.713013,314.938293 
	C1205.647339,312.570740 1212.906128,307.938873 1221.201782,303.971313 
	C1220.390015,303.622070 1220.852905,303.668671 1220.963135,303.890533 
	C1226.350830,314.736267 1236.025513,315.911285 1246.418457,314.818573 
	C1248.401001,314.610107 1251.043091,312.824249 1251.886230,311.054260 
	C1254.745117,305.052155 1251.431885,300.420380 1244.511353,300.016937 
	C1237.086548,299.584076 1236.124023,298.484619 1235.990356,290.961029 
	C1235.712769,275.339722 1235.727417,259.700348 1234.912964,244.105438 
	C1234.242432,231.267349 1225.065552,221.251511 1212.419922,218.068436 
	C1202.942749,215.682892 1193.258057,214.974121 1183.821045,217.262115 
	C1174.860352,219.434586 1166.093628,222.607285 1157.491943,225.979004 
	C1152.935181,227.765152 1152.312500,231.170685 1154.529663,235.896225 
	C1156.341309,239.757401 1158.918823,242.191010 1163.607300,240.225739 
	C1166.972534,238.815125 1170.388550,237.526108 1174.550415,235.991684 
M924.427429,348.995636 
	C935.757935,338.878906 942.124084,325.593048 948.513306,312.179504 
	C959.452759,289.213379 971.078857,266.574310 982.020874,243.609344 
	C984.942078,237.478348 988.085144,233.022949 995.576721,232.853531 
	C999.852722,232.756821 999.960266,228.973389 999.946228,225.739059 
	C999.932678,222.622925 999.533142,219.185013 995.552917,219.115219 
	C983.142700,218.897598 970.724060,218.915039 958.313232,219.118515 
	C954.264282,219.184891 953.963074,222.487640 953.999268,225.692215 
	C954.035767,228.924652 953.801086,232.233215 958.193787,232.948181 
	C961.390869,233.468536 964.575684,234.064056 968.506287,234.756500 
	C959.739502,253.061707 951.233032,270.823517 942.102112,289.889008 
	C932.197266,270.577850 923.151733,252.942078 913.824524,234.757172 
	C919.398438,234.056763 923.808411,233.615936 928.177734,232.919815 
	C932.086548,232.297073 933.014404,229.477798 933.008850,225.931839 
	C933.003235,222.347168 931.937927,219.206589 928.046326,219.121124 
	C914.640869,218.826736 901.223450,218.787430 887.819641,219.072968 
	C886.151428,219.108505 883.807251,221.357651 883.032104,223.130234 
	C880.497192,228.927689 883.645325,233.281555 891.095764,233.790344 
	C895.043945,234.059967 896.918152,235.692123 898.573853,238.999786 
	C907.579102,256.989563 916.108521,275.269958 926.166382,292.661102 
	C932.398560,303.437378 933.521973,312.652679 925.301147,322.327148 
	C925.195984,322.450989 925.142456,322.618500 925.063171,322.764679 
	C918.976807,333.983643 909.865051,340.475861 896.841125,341.025024 
	C891.101318,341.267029 888.721313,344.025970 889.074402,349.631653 
	C889.417664,355.081238 892.940491,358.365204 898.219727,357.847260 
	C907.374878,356.949127 916.325439,355.311279 924.427429,348.995636 
M1475.098511,297.790649 
	C1465.989380,300.473328 1456.783447,301.601959 1447.206909,301.151917 
	C1431.208984,300.400116 1422.286743,290.768463 1419.393555,276.777283 
	C1418.542847,272.663910 1419.656860,270.896362 1424.053101,270.965393 
	C1434.044556,271.122406 1444.040283,271.005157 1454.034302,271.002106 
	C1466.693359,270.998260 1479.352661,271.033020 1492.011597,270.980743 
	C1499.047974,270.951691 1500.100220,269.905182 1499.948486,262.780060 
	C1499.885132,259.814453 1499.517700,256.812134 1498.899902,253.909271 
	C1496.637695,243.280212 1492.288818,233.753723 1483.563843,226.776031 
	C1471.828491,217.390869 1458.427490,214.909927 1443.766479,216.878067 
	C1426.017822,219.260681 1413.346436,228.287842 1405.789429,244.535431 
	C1401.413086,253.944473 1401.887085,263.953064 1402.007812,273.924896 
	C1402.225708,291.934967 1413.906128,308.396301 1431.044678,314.068756 
	C1447.400391,319.482178 1463.806519,317.871857 1479.998535,313.051056 
	C1484.585571,311.685333 1489.122070,309.880524 1493.347656,307.645569 
	C1497.656982,305.366302 1498.165771,301.017609 1495.428711,295.928192 
	C1493.166870,291.722504 1490.692383,290.979248 1485.868164,293.086304 
	C1482.519775,294.548706 1479.182983,296.037170 1475.098511,297.790649 
M857.485596,258.812561 
	C857.988281,256.787964 858.892090,254.769913 858.925171,252.737671 
	C859.079590,243.247986 859.021301,233.754272 858.983459,224.262222 
	C858.960205,218.420746 856.991028,216.325378 851.468018,216.066483 
	C845.915894,215.806229 843.502380,218.077499 842.973999,223.990707 
	C842.893433,224.893250 842.603760,225.777115 842.319763,227.090866 
	C831.200500,218.577484 819.497314,214.838898 805.729736,216.792145 
	C784.723145,219.772415 769.690247,232.808655 764.546875,253.886917 
	C758.526550,278.559113 769.387146,303.287415 790.954163,312.878601 
	C805.429932,319.316193 820.558899,318.610016 835.312744,314.132629 
	C842.495117,311.952972 849.299133,308.140686 855.822571,304.299927 
	C860.901123,301.309906 861.161316,296.279388 857.559692,291.340576 
	C854.700684,287.420074 851.749207,287.760620 846.403564,290.840363 
	C840.559448,294.207336 834.416626,297.565186 827.966003,299.259338 
	C816.192505,302.351562 804.322266,302.772949 793.585693,295.098419 
	C785.419739,289.261444 781.930542,281.049042 780.620850,271.454651 
	C778.690857,257.317017 785.117249,243.794388 797.119080,236.850143 
	C804.680054,232.475372 812.670776,232.563263 820.792603,233.058243 
	C831.694519,233.722672 842.957520,240.294052 843.023743,253.939240 
	C843.039673,257.219879 844.563049,259.627960 847.793274,259.931763 
	C850.767456,260.211426 853.828430,259.568970 857.485596,258.812561 
M1052.490234,189.015091 
	C1045.722168,189.419250 1044.067505,191.101059 1044.017578,197.888489 
	C1043.959961,205.719162 1043.794189,213.557510 1044.066650,221.378876 
	C1044.222412,225.848373 1042.471313,227.287918 1038.208618,227.051193 
	C1033.557983,226.792923 1028.880249,226.942886 1024.216309,227.028732 
	C1018.434082,227.135178 1017.116150,228.372955 1017.014526,233.495773 
	C1016.895325,239.506348 1018.674011,241.704742 1024.205322,241.935791 
	C1028.364014,242.109497 1032.534668,241.986740 1036.700073,242.004532 
	C1043.954346,242.035522 1043.871460,242.039978 1044.013794,249.105316 
	C1044.295288,263.067474 1044.320557,277.048248 1045.125122,290.982452 
	C1045.852905,303.585083 1054.341431,313.440460 1066.597046,315.991364 
	C1084.495605,319.716705 1100.839355,314.934235 1115.912598,305.291992 
	C1119.857788,302.768158 1119.851807,297.831268 1116.548096,293.322723 
	C1113.975220,289.811523 1110.865845,289.470398 1106.548096,291.941711 
	C1097.550171,297.091858 1088.384155,301.060547 1077.523315,301.207672 
	C1066.283569,301.359894 1061.158081,293.312744 1061.052490,284.706940 
	C1060.901367,272.379028 1061.151245,260.045441 1060.934082,247.719482 
	C1060.857544,243.378601 1062.310913,241.853943 1066.689575,241.931824 
	C1078.515259,242.142166 1090.349854,242.097321 1102.176514,241.900055 
	C1107.492432,241.811356 1110.054321,238.970779 1109.898193,234.236115 
	C1109.729248,229.119125 1107.501099,227.038742 1101.934692,227.017166 
	C1089.938354,226.970673 1077.940796,226.905853 1065.945679,227.030533 
	C1062.286255,227.068573 1060.901611,225.682114 1060.969971,222.037323 
	C1061.116455,214.209335 1061.102295,206.373978 1060.942627,198.545959 
	C1060.809082,191.990433 1058.857544,189.728180 1052.490234,189.015091 
M1286.749023,314.998505 
	C1293.745483,314.999542 1300.741943,315.002014 1307.738403,315.001373 
	C1326.562256,314.999634 1345.386108,315.006927 1364.209961,314.983856 
	C1367.401245,314.979950 1370.556030,314.994659 1372.055054,311.183228 
	C1374.323608,305.415436 1371.171997,300.250275 1364.800293,300.080231 
	C1356.809937,299.866974 1348.809814,300.013306 1340.813965,299.996002 
	C1333.031250,299.979187 1333.013306,299.974548 1333.006592,292.411774 
	C1332.993164,277.419342 1333.002686,262.426880 1333.000732,247.434448 
	C1332.998291,227.444534 1333.032349,207.454498 1332.969849,187.464767 
	C1332.948120,180.486267 1331.071899,178.179169 1324.874512,178.086578 
	C1312.883667,177.907379 1300.885864,177.909332 1288.895264,178.102264 
	C1283.561401,178.188095 1282.019531,180.705658 1281.957886,186.810455 
	C1281.906372,191.912231 1284.889526,192.973282 1289.020752,192.983185 
	C1296.350342,193.000748 1303.682251,193.120682 1311.008545,192.970734 
	C1314.624512,192.896729 1316.037354,194.230408 1316.028076,197.914841 
	C1315.946045,230.231613 1315.936890,262.548859 1316.041260,294.865509 
	C1316.053955,298.821442 1314.540283,300.119568 1310.728394,300.039795 
	C1302.569580,299.869019 1294.403931,299.948608 1286.242188,300.030304 
	C1280.631714,300.086487 1277.474243,302.717773 1277.251099,307.278290 
	C1276.992798,312.562531 1279.352539,314.686188 1286.749023,314.998505 
M220.500168,385.001831 
	C230.993286,384.996704 241.487549,384.902344 251.978912,385.035980 
	C255.535126,385.081268 257.344788,383.930206 257.025543,380.174896 
	C256.902039,378.721863 257.005402,377.249573 257.005402,375.256744 
	C231.922791,371.881622 210.154678,361.775482 192.058807,343.695038 
	C173.970291,325.621918 164.228775,303.679077 160.515503,278.901093 
	C150.341965,279.124878 151.033234,278.151733 151.008057,287.907166 
	C150.971085,302.231018 150.545303,316.572968 151.108475,330.874756 
	C151.928955,351.711151 162.007553,367.301514 179.851303,377.929413 
	C192.169327,385.266113 205.776886,385.485352 220.500168,385.001831 
M385.001404,329.390564 
	C385.001495,315.567017 385.004456,301.743500 385.000610,287.919952 
	C384.998199,279.216583 384.993835,279.212250 376.597870,278.788330 
	C376.308838,278.773712 376.006256,279.027771 375.623627,279.194153 
	C365.720032,333.562408 333.506989,365.740021 279.136444,375.671509 
	C278.639008,384.988831 278.639008,384.993011 287.476532,385.000183 
	C295.137756,385.006409 302.801819,385.132629 310.459534,384.968994 
	C320.250671,384.759827 330.234863,385.436371 339.786591,383.751312 
	C365.225555,379.263580 384.559509,356.091339 385.001404,329.390564 
M247.821503,162.224518 
	C250.886566,161.650497 253.951630,161.076477 256.925873,160.519455 
	C257.200836,151.009308 257.200836,151.003311 248.373917,150.999802 
	C234.878189,150.994415 221.382477,150.994034 207.886749,150.999069 
	C175.791183,151.011017 151.012299,175.739258 150.999191,207.770996 
	C150.993607,221.433334 150.993469,235.095673 151.000519,248.758011 
	C151.004715,256.886688 151.012878,256.894745 159.093887,257.205475 
	C159.539413,257.222565 159.997009,256.926117 160.226074,256.849823 
	C169.594208,207.173416 197.235947,174.650131 247.821503,162.224518 
M282.005035,151.097977 
	C276.500549,152.710373 280.131927,157.203812 278.622925,160.290070 
	C333.874451,170.067337 365.925476,202.612488 375.645691,257.113342 
	C385.543762,256.825439 384.971252,258.010162 384.993988,248.138260 
	C385.024719,234.805420 385.456390,221.450775 384.821991,208.148132 
	C384.472137,200.812271 383.225067,193.231125 380.764648,186.338043 
	C373.410980,165.736328 351.691437,151.030350 329.908112,151.005295 
	C314.242096,150.987289 298.576050,151.027008 282.005035,151.097977 
M522.514709,286.954315 
	C523.181763,286.008545 523.907410,285.098297 524.506592,284.111328 
	C529.141907,276.476532 529.211243,268.761658 524.648254,261.103149 
	C520.264832,253.746109 513.503174,250.271088 505.135406,250.625244 
	C495.888763,251.016617 489.119476,255.768372 485.462463,264.299835 
	C481.422546,273.724670 485.075897,285.141968 493.537231,290.703857 
	C502.980927,296.911469 513.582886,295.709991 522.514709,286.954315 
M37.421375,251.804504 
	C33.857487,251.523178 30.232317,250.684280 26.741518,251.067963 
	C17.300453,252.105606 11.609147,257.869019 8.968414,266.767059 
	C6.249970,275.926941 9.225032,283.620453 16.192579,289.480164 
	C22.706432,294.958313 30.411051,296.378815 38.449757,292.731476 
	C46.633739,289.018219 51.612415,282.869354 51.986439,273.570648 
	C52.404419,263.179138 47.270191,256.343872 37.421375,251.804504 
M39.719158,346.429535 
	C38.936691,343.280457 36.578854,342.525391 33.946514,343.308228 
	C29.819464,344.535522 25.743271,346.033203 21.830078,347.820435 
	C20.637354,348.365173 19.325274,350.273834 19.384319,351.494171 
	C19.448196,352.814331 20.851717,354.315063 22.049917,355.252716 
	C22.916042,355.930481 24.401211,355.817139 25.766977,356.087646 
	C24.131453,363.513672 24.979963,370.196014 28.787691,376.531677 
	C33.354225,384.129822 39.874279,387.123535 48.047726,384.983917 
	C56.128864,382.868530 60.204247,377.516113 59.908424,368.350433 
	C59.727436,362.742889 58.550964,357.174561 58.074951,351.567078 
	C57.740608,347.628418 57.961140,343.775055 62.963490,342.546539 
	C67.892326,341.336151 70.457848,344.264557 72.407951,347.965363 
	C75.680283,354.175354 75.682129,360.226166 71.502373,366.237793 
	C70.616554,367.511810 70.543152,370.148987 71.293121,371.486633 
	C71.808960,372.406708 74.421585,372.500397 76.043549,372.357269 
	C77.820335,372.200500 79.719673,371.647980 81.232758,370.723297 
	C83.285530,369.468719 86.067947,367.963165 86.552971,366.059631 
	C86.920403,364.617645 84.185272,362.385071 82.830795,360.504303 
	C82.802933,353.401184 81.811172,346.208679 76.943321,339.843414 
	C73.120972,334.845276 65.972092,332.654602 59.465706,334.773834 
	C52.896549,336.913574 49.844452,340.931244 50.079597,348.247406 
	C50.265316,354.025543 51.157520,359.779144 51.675770,365.549072 
	C52.066540,369.899719 51.380554,373.966766 47.144161,376.241180 
	C43.555428,378.167908 38.733555,376.806274 36.410152,373.605896 
	C31.179335,366.400696 31.243454,358.194366 36.600578,351.063080 
	C37.594082,349.740540 38.632969,348.452087 39.719158,346.429535 
M367.782715,470.491150 
	C358.591980,466.207275 341.094727,471.789398 336.305267,480.805908 
	C335.608856,482.117004 335.940186,484.870239 336.913055,485.882111 
	C337.662231,486.661377 340.439545,486.263092 341.838806,485.507050 
	C347.046661,482.693237 351.805969,478.915222 357.214661,476.645142 
	C362.509338,474.422943 366.702057,478.364532 366.507935,483.748199 
	C360.292542,486.192963 354.087097,488.092590 348.399231,491.003540 
	C340.706024,494.940704 338.239960,502.670044 341.547089,509.957031 
	C344.597076,516.677429 352.539490,520.069763 360.130615,516.885071 
	C364.730042,514.955444 369.149078,511.908203 372.701141,508.402496 
	C375.226746,505.909821 376.703674,504.495667 380.503204,505.726440 
	C382.838135,506.482788 385.991882,505.417969 388.533478,504.496490 
	C389.613647,504.104858 390.811737,501.842438 390.589111,500.695679 
	C390.382782,499.632935 388.234131,498.058655 387.147736,498.208679 
	C382.342651,498.872070 381.142212,495.971100 379.470947,492.345551 
	C376.113373,485.061920 375.254974,476.414398 367.782715,470.491150 
M492.151276,384.960114 
	C505.562500,382.503662 516.726746,364.015594 512.784180,350.726410 
	C511.773193,347.318756 508.884735,347.307861 506.902130,348.860077 
	C505.570404,349.902679 505.062836,352.683990 505.103821,354.668457 
	C505.239563,361.240540 503.533875,367.168671 499.702148,372.435883 
	C496.010132,377.511108 489.571869,378.403381 484.952362,374.475739 
	C488.818390,365.579620 492.780121,356.641327 496.586243,347.637207 
	C498.817719,342.358276 498.000854,340.346344 493.648102,339.147919 
	C485.349304,336.863159 477.629639,337.943359 471.600922,344.306427 
	C465.091766,351.176636 463.087952,359.570526 465.865540,368.750885 
	C468.847931,378.608215 478.890381,384.906769 492.151276,384.960114 
M165.555206,505.269104 
	C165.158478,506.264160 165.024216,507.528473 164.323441,508.211639 
	C158.791885,513.604187 152.886734,517.832703 144.370773,515.289612 
	C143.070938,514.901428 140.681824,516.297791 139.659790,517.565063 
	C139.078537,518.285767 139.773315,521.061401 140.735092,521.771240 
	C142.363541,522.973206 144.611618,523.560852 146.682098,523.898438 
	C154.343948,525.147583 160.637131,522.057434 166.257004,517.220337 
	C176.305069,508.571747 186.239334,499.788330 196.404068,491.279785 
	C198.883148,489.204590 201.244614,486.064240 205.535980,487.694672 
	C206.328629,487.995789 208.368332,486.654968 208.873199,485.608948 
	C209.372040,484.575439 209.076385,482.047302 208.405945,481.736816 
	C203.184647,479.318970 197.825668,477.174133 192.401917,475.246979 
	C191.684158,474.992004 189.845139,476.227325 189.460953,477.158478 
	C189.061569,478.126434 189.548950,479.694824 190.112000,480.754395 
	C190.601944,481.676422 191.738144,482.255035 193.260254,483.561920 
	C186.677383,489.292450 180.434952,494.726593 174.192520,500.160736 
	C173.742462,499.942596 173.292404,499.724426 172.842346,499.506256 
	C172.366684,491.174347 171.891022,482.842407 171.387878,474.029022 
	C173.334915,474.481018 174.908768,475.187714 176.437347,475.100494 
	C177.828857,475.021179 180.117447,474.309723 180.322250,473.466736 
	C180.663101,472.063690 180.125412,469.397003 179.133835,468.897308 
	C174.116394,466.368896 168.883484,464.230164 163.600235,462.299255 
	C162.556625,461.917847 160.214706,462.693268 159.799789,463.566406 
	C159.223145,464.779846 159.320358,467.442291 160.139069,467.998932 
	C164.152832,470.727661 163.700333,474.830444 163.949036,478.660400 
	C164.507935,487.266937 164.844833,495.887909 165.555206,505.269104 
M31.354708,169.795135 
	C32.858448,168.320786 34.362190,166.846436 35.865929,165.372086 
	C34.275612,163.965714 32.774223,162.435501 31.058632,161.203583 
	C30.158792,160.557449 28.890327,160.161072 27.776327,160.133301 
	C25.645893,160.080185 22.571426,159.588638 21.619387,160.726746 
	C20.543591,162.012802 21.371424,164.891281 21.371424,168.404053 
	C21.353371,168.420013 20.127970,169.319122 19.125679,170.421143 
	C14.403305,175.613403 13.022097,181.825516 14.425014,188.512756 
	C15.631862,194.265396 19.610182,197.583771 25.304890,198.831085 
	C31.962591,200.289352 36.042030,196.314789 39.513973,191.665146 
	C42.287060,187.951416 44.536259,183.848465 47.053772,179.941315 
	C49.337723,176.396698 52.657261,175.269043 56.570274,176.471832 
	C60.169395,177.578140 60.963982,180.567566 61.003174,184.002594 
	C61.098263,192.336380 56.434689,197.594009 46.984631,200.061508 
	C45.551609,200.435684 43.466740,201.988693 43.426777,203.061386 
	C43.380306,204.308685 45.003082,206.109283 46.349079,206.810806 
	C48.825348,208.101395 51.649071,208.710526 54.290318,209.703827 
	C56.624722,210.581726 59.355026,212.219803 60.699020,208.964111 
	C61.413067,207.234421 60.453518,204.813858 60.271690,202.935242 
	C62.797192,198.182129 66.186394,193.398621 67.967873,188.076920 
	C70.642570,180.086945 67.137993,172.749680 60.399364,169.778946 
	C52.110729,166.124878 45.799122,167.988205 40.636467,175.659637 
	C37.863636,179.779922 35.268826,184.026138 32.360996,188.047256 
	C30.437304,190.707458 27.829258,191.876526 24.527037,190.138870 
	C21.103891,188.337570 20.516388,185.252365 21.278242,182.033646 
	C22.540291,176.701645 25.032354,172.084473 31.354708,169.795135 
M376.205078,58.742714 
	C377.109314,56.426159 378.125916,54.146317 378.896973,51.786251 
	C381.321686,44.364288 379.989563,39.173687 372.983521,35.910671 
	C367.308746,33.267658 360.765228,32.384762 354.527771,31.108770 
	C352.165100,30.625441 349.176300,30.758850 349.183655,34.509262 
	C349.190979,38.261349 352.143158,37.590748 354.553223,38.050621 
	C359.207458,38.938728 364.088837,39.531265 368.329712,41.452381 
	C373.062927,43.596512 373.283051,48.498177 369.588776,52.393600 
	C363.003235,48.176983 356.359894,44.120266 347.971008,45.006702 
	C343.204132,45.510410 339.838348,47.830368 338.163513,52.236671 
	C336.440643,56.769417 336.108551,61.204834 339.747070,65.271820 
	C345.032684,71.179863 351.783447,72.459755 359.209015,72.003609 
	C361.919342,71.837120 364.137238,71.843254 365.528870,75.251755 
	C366.273621,77.075928 369.254517,78.331306 371.482635,79.069016 
	C372.704529,79.473549 374.912689,78.664406 375.805023,77.642143 
	C376.347198,77.021065 375.679871,74.224388 374.774139,73.660332 
	C371.504150,71.623962 371.885193,69.279892 373.225891,66.411575 
	C374.276764,64.163376 375.086304,61.802383 376.205078,58.742714 
M112.571098,450.810181 
	C114.878860,453.143982 116.989616,452.406342 119.052307,450.423431 
	C120.850525,448.694763 122.538704,446.806000 124.533730,445.339203 
	C127.028358,443.505219 130.119507,441.585022 128.526855,438.308472 
	C127.641167,436.486298 124.387001,435.815399 121.289406,434.130035 
	C117.996384,420.967560 106.266396,413.438293 92.791389,417.041107 
	C81.847656,419.967194 73.803009,431.671967 75.075500,442.817322 
	C76.254471,453.143433 89.267036,465.642822 99.046211,465.986603 
	C101.952827,466.088776 104.416222,465.135193 104.419807,462.252411 
	C104.421516,460.869263 102.130081,459.146179 100.518440,458.168243 
	C97.157623,456.128967 93.273911,454.876678 90.114380,452.595581 
	C82.869476,447.364990 81.508026,440.265717 85.756195,432.618195 
	C89.539513,425.807495 97.511292,423.069550 105.150444,425.957092 
	C113.291199,429.034241 116.687485,438.193420 112.678749,445.767761 
	C112.027641,446.998016 112.334015,448.735046 112.571098,450.810181 
M476.845001,205.686905 
	C478.762054,208.252884 480.954407,211.516815 484.372070,208.705353 
	C488.142853,205.603394 484.197571,203.435623 482.539886,200.921539 
	C479.920563,196.949051 477.133667,192.908966 475.522644,188.494278 
	C473.455475,182.829666 476.492828,177.896942 482.633240,175.604080 
	C486.261597,184.104187 490.095154,192.547577 493.451385,201.176636 
	C495.103943,205.425522 497.371185,205.490906 500.714874,203.566635 
	C509.644257,198.427856 513.085632,188.917801 509.512299,179.167587 
	C505.779022,168.981064 495.782288,162.771271 485.940826,165.342987 
	C475.164337,168.159058 465.523346,175.015549 468.348755,188.841888 
	C469.519440,194.570709 473.653992,199.693878 476.845001,205.686905 
M167.335266,51.165718 
	C165.280533,49.355156 163.225815,47.544594 160.950058,45.539261 
	C162.050751,44.730827 162.767441,44.458950 163.055054,43.946327 
	C163.986679,42.285786 164.760880,40.536919 165.595718,38.822071 
	C163.848938,38.482517 161.881531,37.457333 160.397659,37.934822 
	C156.309891,39.250214 152.328323,41.010799 148.518738,43.004250 
	C147.397186,43.591133 146.397247,45.566700 146.451813,46.858967 
	C146.491531,47.799450 148.841385,49.644321 149.328400,49.403263 
	C152.790237,47.689819 154.604401,50.173508 156.718063,51.877960 
	C163.171341,57.081852 169.815445,62.085930 175.881180,67.711311 
	C177.716721,69.413597 178.762375,72.912598 178.678085,75.540756 
	C178.509384,80.800507 176.487823,85.388344 171.570496,88.504517 
	C170.328186,89.291794 170.485672,92.287979 169.999924,94.269119 
	C171.915939,94.358429 174.193100,95.161934 175.682953,94.408531 
	C181.010635,91.714378 184.537247,87.283325 184.983047,81.161247 
	C185.814148,69.747971 186.151199,58.296886 187.088455,46.893967 
	C187.543610,41.356373 186.155869,35.205910 191.213043,30.695675 
	C191.702850,30.258835 191.518463,28.128378 190.930725,27.631693 
	C189.948166,26.801346 188.133652,25.966087 187.114410,26.341452 
	C182.920761,27.885880 178.770706,29.658400 174.851257,31.798702 
	C172.276993,33.204414 172.802582,36.428581 175.622711,37.517075 
	C176.773392,37.961205 178.142776,37.838680 179.381073,37.970592 
	C179.381073,45.543762 179.381073,52.848362 179.381073,61.306187 
	C174.936905,57.530991 171.427185,54.549591 167.335266,51.165718 
M272.879059,499.959930 
	C276.541107,499.938995 280.245544,500.228638 283.843567,499.738098 
	C285.206665,499.552307 286.884369,497.746674 287.335846,496.333466 
	C287.590546,495.536194 285.815918,493.260468 284.652893,492.999695 
	C281.463470,492.284546 278.117279,492.089355 274.827393,492.034424 
	C264.048401,491.854340 265.098022,492.899597 264.998016,482.439667 
	C264.985291,481.107971 265.310699,479.628387 264.835999,478.484314 
	C264.305786,477.206482 262.931335,475.244263 262.119812,475.334686 
	C260.464417,475.519104 258.456757,476.534821 257.508270,477.861542 
	C256.685059,479.013000 257.037659,481.064331 257.016388,482.719879 
	C256.908020,491.160797 256.905518,491.021210 248.421036,492.178406 
	C246.926773,492.382233 245.666931,494.304688 244.298813,495.433441 
	C245.689697,496.598114 246.948761,498.535858 248.493317,498.799194 
	C257.067413,500.261047 257.130890,500.122589 256.963562,508.842133 
	C256.925720,510.814453 256.555664,512.787048 256.254242,514.746582 
	C254.954849,523.193665 259.409882,531.972534 266.557709,533.540466 
	C274.284790,535.235474 281.842072,533.787109 288.525238,529.454041 
	C289.743896,528.663940 289.858734,526.171204 290.483124,524.464478 
	C288.644409,523.844238 286.741608,522.591797 284.983765,522.769836 
	C282.955505,522.975342 281.142548,524.822937 279.084045,525.296631 
	C270.075958,527.369263 264.013306,526.859436 264.825806,515.283691 
	C265.058563,511.967987 264.963562,508.628754 265.003387,505.300140 
	C265.082031,498.725006 265.344635,498.518524 272.879059,499.959930 
M434.219452,463.652740 
	C434.746796,465.460114 435.274170,467.267517 435.801544,469.074951 
	C437.546478,468.527191 439.746979,468.473328 440.962860,467.351929 
	C449.151154,459.799896 457.183594,452.075745 465.155029,444.293152 
	C469.085480,440.455750 468.721771,439.091736 463.248535,436.334869 
	C459.243835,439.780457 455.134338,443.316132 449.633392,448.049042 
	C447.566620,445.308990 445.879028,442.571381 443.713287,440.287048 
	C434.444214,430.510315 425.018097,420.882690 415.688904,411.162659 
	C413.787903,409.181976 411.991150,407.738953 409.393188,410.140564 
	C405.858124,413.408508 402.253632,416.601288 398.679138,419.826508 
	C396.677307,421.632721 395.067657,423.672394 397.391693,426.182190 
	C399.937561,428.931549 402.194824,427.127594 404.219788,425.234467 
	C406.606964,423.002838 408.911163,420.682404 411.567322,418.092377 
	C422.929382,430.095886 433.829376,441.611206 445.108337,453.526917 
	C441.185181,457.091095 437.895599,460.079681 434.219452,463.652740 
M89.867996,86.904213 
	C76.867386,90.027328 69.487350,109.869255 83.632690,122.242317 
	C90.223923,128.007736 98.313164,129.680313 106.186073,125.897316 
	C113.879768,122.200439 121.854584,110.388382 120.793167,103.622040 
	C120.553558,102.094574 118.563751,100.841660 117.379616,99.462364 
	C116.279640,100.529564 114.786339,101.406410 114.159142,102.702415 
	C112.721840,105.672348 111.968613,108.980591 110.468781,111.911545 
	C106.920334,118.845886 100.059532,121.818985 93.418739,119.613991 
	C87.295799,117.580940 82.903748,109.563934 84.130600,102.659935 
	C85.528046,94.795967 94.189156,90.433334 101.549652,93.620850 
	C102.807442,94.165535 105.410065,93.799164 106.103256,92.881065 
	C106.914917,91.806068 107.028542,89.022568 106.199860,88.106445 
	C103.435188,85.049988 100.281509,82.268570 96.951935,79.824432 
	C94.324608,77.895782 91.361168,79.963593 91.264961,83.344879 
	C91.233009,84.467468 90.758881,85.577469 89.867996,86.904213 
M256.935394,26.682293 
	C257.298492,31.960569 257.709686,37.236095 258.011902,42.517853 
	C258.348969,48.408352 261.170502,53.189770 266.134125,54.365826 
	C273.707947,56.160328 281.025177,54.978340 287.319061,50.134674 
	C288.346527,49.343983 289.120514,46.365776 288.559326,45.772572 
	C287.528381,44.682835 285.255066,43.925308 283.790070,44.268669 
	C280.932373,44.938457 278.362091,46.775215 275.516632,47.569061 
	C269.254089,49.316235 265.420502,46.536350 265.081451,40.111805 
	C264.871460,36.132427 265.108185,32.131508 265.017792,28.143124 
	C264.949982,25.150620 266.344238,23.976269 269.247742,24.010548 
	C273.235535,24.057631 277.270813,24.242960 281.189606,23.688902 
	C282.540924,23.497847 283.604340,21.270050 284.799255,19.972639 
	C283.504608,18.998884 282.301422,17.382641 280.896606,17.182688 
	C277.797668,16.741613 274.597076,17.020090 271.438080,16.994644 
	C264.911041,16.942068 264.457092,16.273363 263.909729,9.943990 
	C263.669830,7.170160 266.195679,2.282249 260.613586,2.279798 
	C255.239731,2.277439 257.204498,7.052968 257.079742,9.952368 
	C256.773590,17.066572 256.917664,16.944338 250.084259,18.140142 
	C248.685226,18.384964 247.526154,20.001036 246.256470,20.985029 
	C247.684280,21.980478 249.005997,23.213079 250.566742,23.911446 
	C252.524628,24.787523 254.678528,25.225569 256.935394,26.682293 
M455.858704,83.515266 
	C446.260406,93.599518 436.662109,103.683769 426.081146,114.800468 
	C423.220001,111.475899 421.189026,108.557739 418.576599,106.317680 
	C417.284821,105.210030 414.921417,105.352051 413.042908,104.928642 
	C413.391418,106.806374 413.092651,109.294823 414.194092,110.462135 
	C421.051147,117.729332 428.110016,124.819809 435.395813,131.655655 
	C436.645782,132.828415 439.306244,132.497772 441.315125,132.861618 
	C440.950745,130.822281 441.190277,128.343948 440.094391,126.836319 
	C437.912018,123.834023 434.995575,121.365311 431.180511,117.439354 
	C433.342133,116.048553 435.130157,115.278275 436.423035,114.005173 
	C445.444458,105.121811 454.298553,96.068016 463.351379,87.217262 
	C466.391541,84.244972 466.648010,81.746353 463.402618,78.864975 
	C461.288544,76.988029 459.457886,74.792938 457.355072,72.901863 
	C455.052490,70.831139 452.581543,66.566658 449.346619,70.667679 
	C446.767029,73.937859 450.955078,75.957451 452.819916,78.239311 
	C454.046082,79.739677 455.107605,81.374588 455.858704,83.515266 
M268.889160,360.628235 
	C268.284485,360.730652 267.167969,360.774017 267.148346,360.943939 
	C266.051453,370.453156 264.959198,379.965424 264.130768,389.500305 
	C264.014374,390.840057 264.876953,392.960724 265.927856,393.524689 
	C267.160217,394.186066 270.120392,394.094879 270.521637,393.352325 
	C271.525543,391.494537 272.002991,389.039825 271.811432,386.903503 
	C271.045502,378.360474 269.944305,369.847473 268.889160,360.628235 
M165.519989,265.993530 
	C160.253296,265.387634 154.998322,264.600372 149.714554,264.258728 
	C147.364395,264.106750 144.751205,264.427368 142.684921,265.421783 
	C141.957291,265.771973 141.860870,269.929535 142.593475,270.336243 
	C144.557205,271.426422 147.120117,271.743195 149.454498,271.780975 
	C152.248917,271.826294 155.056824,271.294403 157.852417,270.958618 
	C164.106689,270.207428 170.356949,269.422821 176.608841,268.651825 
	C176.595566,268.218994 176.582291,267.786194 176.569031,267.353394 
	C173.188766,266.903656 169.808517,266.453918 165.519989,265.993530 
M362.031525,266.988373 
	C361.161102,267.195953 360.290649,267.403503 359.420227,267.611084 
	C369.286530,269.841675 379.156555,270.947510 389.037811,271.942322 
	C391.707764,272.211090 393.928406,271.844116 393.997803,268.159912 
	C394.071838,264.230957 391.777374,263.750092 388.857239,264.054138 
	C380.166229,264.959106 371.486511,265.972992 362.031525,266.988373 
M264.054108,148.379944 
	C265.131897,157.778595 266.209717,167.177246 267.287506,176.575897 
	C267.740112,176.563461 268.192688,176.551041 268.645294,176.538605 
	C269.727692,167.085724 270.911896,157.642609 271.820831,148.173080 
	C272.047699,145.809631 273.149536,142.576614 268.849030,142.069000 
	C264.487915,141.554230 263.721649,143.986725 264.054108,148.379944 
z"/>
<path fill="#1B2141" opacity="1.000000" stroke="none" 
	d="
M186.639557,210.636841 
	C203.439850,187.698013 225.520325,173.900894 253.227127,169.177902 
	C257.086151,168.520081 259.479584,169.582703 259.000366,174.058533 
	C258.965179,174.387161 258.999329,174.724396 259.014343,175.057053 
	C259.439789,184.472610 264.559113,188.114944 273.378754,184.512100 
	C275.180969,183.775879 276.288300,180.059448 276.746246,177.540482 
	C278.429047,168.284119 278.276306,168.251907 287.645264,170.137161 
	C306.705872,173.972565 323.456390,182.574341 337.333160,196.027115 
	C353.547333,211.745895 363.166290,231.189178 366.853180,253.507202 
	C367.454315,257.146118 366.367188,259.422211 362.159637,258.996063 
	C361.830566,258.962738 361.493744,258.995972 361.161011,259.010345 
	C351.489532,259.427948 348.375885,263.825928 351.280884,273.239655 
	C351.601532,274.278717 352.823303,275.355469 353.881500,275.778503 
	C355.546783,276.444305 357.413849,276.695862 359.220642,276.901825 
	C367.526978,277.848511 367.530121,277.820984 366.058533,285.939850 
	C358.556793,327.327484 324.944946,360.032928 282.987579,366.803680 
	C278.868988,367.468292 276.446960,366.342896 276.994049,361.656677 
	C277.032318,361.328796 276.997162,360.990784 276.980499,360.658264 
	C276.531677,351.700989 270.516876,347.838562 262.278259,351.382538 
	C261.297058,351.804626 260.406830,353.240662 260.142365,354.363983 
	C259.538208,356.930115 258.990845,359.604645 259.070740,362.215240 
	C259.201569,366.491302 257.032471,367.431091 253.450211,366.845093 
	C234.838196,363.800354 218.065247,356.476532 203.797348,344.161285 
	C185.318726,328.211487 173.522415,308.251221 169.450882,283.952087 
	C168.474380,278.124237 168.996567,277.243591 174.840515,276.991394 
	C175.006851,276.984222 175.173767,276.989563 175.340027,276.981201 
	C184.300430,276.531555 188.159958,270.523651 184.617828,262.279907 
	C184.196152,261.298553 182.762680,260.424530 181.636871,260.140747 
	C179.242065,259.536987 176.718918,258.950989 174.288376,259.084686 
	C169.520905,259.346832 168.459274,256.996368 169.220276,252.956573 
	C172.080704,237.772186 177.061386,223.453049 186.639557,210.636841 
M245.998047,256.499512 
	C246.004990,250.671143 246.120163,244.840225 245.981888,239.015305 
	C245.885254,234.945480 247.992538,233.220062 251.698761,233.083145 
	C255.524048,232.941818 259.357422,232.996948 263.187195,233.003555 
	C272.030060,233.018799 272.985840,233.960098 272.997040,242.732971 
	C273.016449,257.886810 273.033630,273.040649 273.002472,288.194427 
	C272.996643,291.034790 273.499603,293.032990 277.064850,292.984039 
	C280.258392,292.940216 280.995911,291.305054 280.989258,288.567200 
	C280.950745,272.747467 281.167603,256.924133 280.888763,241.109207 
	C280.720795,231.582123 275.502533,225.412872 267.924316,225.085846 
	C262.273193,224.841980 256.594696,224.845856 250.943481,225.089447 
	C243.775879,225.398392 238.291809,230.667984 238.119507,237.804169 
	C237.846283,249.121140 238.074570,260.449585 238.012558,271.772766 
	C237.996613,274.683685 239.108231,275.987457 242.143265,275.976746 
	C245.397049,275.965240 246.013367,274.163116 245.986938,271.486725 
	C245.940903,266.824615 245.989258,262.161560 245.998047,256.499512 
M304.539185,223.169083 
	C305.360077,228.376160 306.807007,233.573410 306.888916,238.792084 
	C307.178711,257.264099 307.127502,275.744812 306.923950,294.219147 
	C306.864227,299.638458 306.085114,305.082153 305.220734,310.447815 
	C304.724060,313.530975 305.908966,314.529785 308.577148,315.334381 
	C311.750885,316.291382 312.528687,314.405975 312.915039,312.166870 
	C313.729462,307.446289 314.853516,302.692230 314.903961,297.941833 
	C315.121338,277.470093 315.022736,256.994720 314.988617,236.520752 
	C314.957855,218.063629 301.498047,199.400238 284.059540,193.530884 
	C277.461639,191.310181 276.675262,191.964539 277.313629,199.375626 
	C289.782471,202.868637 298.785004,210.592300 304.539185,223.169083 
M244.592773,205.993530 
	C250.622925,202.441284 256.684143,199.056458 263.985321,198.854675 
	C266.752197,198.778198 268.047577,197.086121 267.928101,194.195602 
	C267.794800,190.969925 265.587830,191.061813 263.370148,191.035141 
	C262.538544,191.025162 261.697815,191.006943 260.875427,191.108002 
	C244.006577,193.181137 227.281219,207.983932 222.916550,224.446671 
	C219.172897,238.567062 221.803223,252.927414 221.025391,267.155273 
	C220.872070,269.959686 221.430054,271.994568 225.023865,271.988403 
	C228.651917,271.982147 229.005371,269.876495 228.994354,267.107513 
	C228.961929,258.948730 229.439972,250.759949 228.900314,242.637238 
	C227.922577,227.920639 232.775223,215.918243 244.592773,205.993530 
M297.981384,297.110565 
	C297.979248,284.617096 297.893066,272.122772 298.024292,259.630707 
	C298.065613,255.699371 296.074860,254.231552 292.829773,255.333374 
	C291.504150,255.783463 290.172424,258.436737 290.138580,260.113800 
	C289.899872,271.936340 290.044983,283.765991 289.969666,295.592743 
	C289.932739,301.390076 288.356567,302.870331 282.488617,302.982422 
	C279.657684,303.036530 276.822937,302.936676 273.993805,303.026947 
	C271.289062,303.113220 268.098938,302.295074 268.017151,306.875641 
	C267.937439,311.338593 270.882935,310.973907 273.746704,310.987366 
	C276.911652,311.002258 280.077240,311.027924 283.241669,310.983246 
	C292.002380,310.859528 296.438507,306.933563 297.981384,297.110565 
M237.019135,333.511505 
	C248.415283,343.615417 261.589142,346.803131 276.468781,344.279907 
	C275.662354,336.993866 275.677551,337.234985 269.097382,337.649780 
	C265.856781,337.854065 262.488495,337.247375 259.280151,336.542725 
	C243.430222,333.061554 231.471786,319.792603 228.923843,303.405396 
	C228.684219,301.864258 227.314026,299.638397 226.034134,299.279236 
	C222.027954,298.155029 220.309158,300.447052 221.276443,305.210205 
	C223.476273,316.042480 227.969299,325.641052 237.019135,333.511505 
M267.709595,319.998749 
	C255.132843,319.748230 246.212006,310.794586 246.006088,298.213776 
	C245.954376,295.053619 246.191681,291.848114 245.699783,288.758392 
	C245.533539,287.714020 243.506851,286.232422 242.365540,286.263000 
	C240.949539,286.300964 238.655975,287.426758 238.316254,288.556305 
	C234.926620,299.826447 241.217270,315.683685 250.863571,322.618561 
	C259.283539,328.671783 268.654602,328.306152 278.117493,327.713196 
	C279.126648,327.649963 280.719147,325.294983 280.719910,324.002411 
	C280.720642,322.709473 279.228058,320.500763 278.101318,320.297974 
	C275.032715,319.745758 271.811584,320.041138 267.709595,319.998749 
M266.409180,215.998550 
	C277.100739,214.801346 287.062927,221.739929 289.551971,233.436859 
	C290.199799,236.481232 289.559570,239.808762 290.273712,242.825668 
	C290.575073,244.098831 292.797089,245.591919 294.245087,245.703812 
	C295.385620,245.791946 297.671631,243.987839 297.750153,242.901474 
	C298.600006,231.138916 295.341034,221.011017 285.430695,213.661728 
	C277.513672,207.790619 268.470306,207.690140 259.249573,207.994614 
	C256.377869,208.089447 255.013229,209.054764 255.020721,212.109344 
	C255.028641,215.332077 256.766541,216.054367 259.469543,215.982788 
	C261.463684,215.929977 263.460815,215.989014 266.409180,215.998550 
M260.276215,297.863037 
	C261.171173,296.531555 262.812195,295.216461 262.841919,293.865936 
	C263.061035,283.912323 262.936371,273.951508 262.972076,263.993195 
	C262.981567,261.344818 261.939331,260.073425 259.144501,260.029297 
	C256.129425,259.981659 254.992920,261.290283 255.010925,264.202301 
	C255.071487,273.994476 255.085602,283.787750 254.996857,293.579559 
	C254.968185,296.743713 256.193909,298.258789 260.276215,297.863037 
M301.663513,324.116119 
	C299.708618,321.940094 298.352112,323.326477 296.716400,324.729095 
	C293.474792,327.508789 290.240936,330.378113 286.646149,332.642517 
	C283.090881,334.882019 285.722565,337.064026 286.439972,338.993561 
	C286.670319,339.613220 289.807007,340.036255 290.751862,339.354462 
	C295.023987,336.271820 299.017578,332.797089 303.050354,329.391174 
	C305.466034,327.350983 304.658691,325.752563 301.663513,324.116119 
M228.875519,283.748352 
	C228.175171,279.926117 225.061432,280.707458 223.064575,281.477966 
	C221.962433,281.903198 221.113724,284.734711 221.358688,286.291382 
	C221.524017,287.341980 223.705536,288.561737 225.146286,288.825317 
	C228.278564,289.398468 229.139587,287.329132 228.875519,283.748352 
M262.726685,244.877823 
	C260.534760,244.439575 258.342804,244.001328 256.150848,243.563080 
	C255.868637,245.110275 254.851944,247.186752 255.489334,248.071243 
	C256.293579,249.187317 258.716553,250.106857 259.944336,249.680450 
	C261.223999,249.236008 261.912384,247.089081 262.726685,244.877823 
z"/>
<path fill="#1B2141" opacity="1.000000" stroke="none" 
	d="
M713.332886,221.724915 
	C703.687500,207.004623 684.445129,202.100220 669.961060,206.890564 
	C662.121216,209.483429 658.016541,215.078354 657.161316,223.007187 
	C656.527710,228.880188 659.785461,233.396606 664.864258,235.185791 
	C673.881714,238.362549 683.269897,240.497604 692.525635,242.983932 
	C698.127930,244.488876 703.872253,245.527451 709.381042,247.306915 
	C730.059082,253.986298 737.327454,271.912415 732.460388,291.106018 
	C730.284180,299.687927 725.332214,306.455475 717.749390,310.367279 
	C699.062439,320.007294 680.224121,320.645599 661.938599,308.915649 
	C659.880005,307.595062 658.137878,305.780945 655.403992,303.486542 
	C655.225769,306.505035 655.122009,308.710480 654.960205,310.911713 
	C654.608032,315.701080 652.764648,317.042175 646.674133,316.988007 
	C641.098999,316.938446 639.142151,315.521301 639.077209,310.755463 
	C638.934326,300.261597 639.030518,289.764435 639.031006,279.268616 
	C639.031189,275.695404 640.526062,273.080322 644.125916,272.242249 
	C647.895447,271.364685 650.832703,272.490753 653.015991,276.002716 
	C656.498413,281.604492 659.635925,287.646881 664.127319,292.349030 
	C674.006287,302.691559 696.903931,304.232574 708.736267,296.117401 
	C719.471069,288.754974 719.030151,271.516754 707.256287,265.962860 
	C699.281128,262.200836 690.302673,260.547089 681.746399,258.040955 
	C673.491272,255.623047 664.862488,254.126389 656.995361,250.808319 
	C638.047241,242.816666 636.325378,221.628159 644.504822,206.902267 
	C651.577393,194.169113 663.717896,190.126236 677.111145,189.102295 
	C689.651611,188.143555 701.064514,191.703537 711.203308,200.207565 
	C711.773193,198.396561 712.227600,197.054947 712.617737,195.694885 
	C714.198730,190.182999 717.149597,188.273163 722.921753,189.089020 
	C728.055237,189.814621 729.070190,193.367813 729.015747,197.801239 
	C728.933838,204.464340 728.951111,211.129623 729.013245,217.793167 
	C729.049255,221.649307 728.749817,225.414337 724.286438,226.613434 
	C719.678345,227.851440 715.665039,226.958710 713.332886,221.724915 
z"/>
<path fill="#1B2141" opacity="1.000000" stroke="none" 
	d="
M1174.166260,236.087265 
	C1170.388550,237.526108 1166.972534,238.815125 1163.607300,240.225739 
	C1158.918823,242.191010 1156.341309,239.757401 1154.529663,235.896225 
	C1152.312500,231.170685 1152.935181,227.765152 1157.491943,225.979004 
	C1166.093628,222.607285 1174.860352,219.434586 1183.821045,217.262115 
	C1193.258057,214.974121 1202.942749,215.682892 1212.419922,218.068436 
	C1225.065552,221.251511 1234.242432,231.267349 1234.912964,244.105438 
	C1235.727417,259.700348 1235.712769,275.339722 1235.990356,290.961029 
	C1236.124023,298.484619 1237.086548,299.584076 1244.511353,300.016937 
	C1251.431885,300.420380 1254.745117,305.052155 1251.886230,311.054260 
	C1251.043091,312.824249 1248.401001,314.610107 1246.418457,314.818573 
	C1236.025513,315.911285 1226.350830,314.736267 1220.963135,303.890533 
	C1220.852905,303.668671 1220.390015,303.622070 1221.201782,303.971313 
	C1212.906128,307.938873 1205.647339,312.570740 1197.713013,314.938293 
	C1185.231201,318.662781 1172.479248,318.723877 1160.462891,312.206848 
	C1148.487793,305.712158 1144.961792,295.145447 1146.042358,282.393768 
	C1146.991699,271.191254 1153.209595,263.562286 1163.158447,259.171173 
	C1179.248901,252.069351 1195.823853,253.303055 1212.430420,257.282471 
	C1214.306030,257.731934 1216.216431,258.036896 1218.073242,258.401489 
	C1222.100098,242.521408 1214.629028,232.205536 1198.479126,232.252350 
	C1190.499390,232.275497 1182.526489,234.670090 1174.166260,236.087265 
M1202.658447,270.889130 
	C1192.896973,269.399475 1183.146851,269.101318 1173.601929,272.048157 
	C1166.868408,274.127075 1163.270630,278.981750 1163.026367,285.514526 
	C1162.677490,294.847595 1169.633423,301.485596 1180.392212,301.959076 
	C1193.321289,302.528168 1204.152466,297.381195 1214.365479,289.949707 
	C1219.332886,286.335205 1220.073975,281.474976 1218.528931,276.835297 
	C1217.775513,274.572815 1213.354858,273.288483 1210.380859,272.091461 
	C1208.290771,271.250214 1205.840820,271.303589 1202.658447,270.889130 
z"/>
<path fill="#1B2141" opacity="1.000000" stroke="none" 
	d="
M924.152710,349.227600 
	C916.325439,355.311279 907.374878,356.949127 898.219727,357.847260 
	C892.940491,358.365204 889.417664,355.081238 889.074402,349.631653 
	C888.721313,344.025970 891.101318,341.267029 896.841125,341.025024 
	C909.865051,340.475861 918.976807,333.983643 925.063171,322.764679 
	C925.142456,322.618500 925.195984,322.450989 925.301147,322.327148 
	C933.521973,312.652679 932.398560,303.437378 926.166382,292.661102 
	C916.108521,275.269958 907.579102,256.989563 898.573853,238.999786 
	C896.918152,235.692123 895.043945,234.059967 891.095764,233.790344 
	C883.645325,233.281555 880.497192,228.927689 883.032104,223.130234 
	C883.807251,221.357651 886.151428,219.108505 887.819641,219.072968 
	C901.223450,218.787430 914.640869,218.826736 928.046326,219.121124 
	C931.937927,219.206589 933.003235,222.347168 933.008850,225.931839 
	C933.014404,229.477798 932.086548,232.297073 928.177734,232.919815 
	C923.808411,233.615936 919.398438,234.056763 913.824524,234.757172 
	C923.151733,252.942078 932.197266,270.577850 942.102112,289.889008 
	C951.233032,270.823517 959.739502,253.061707 968.506287,234.756500 
	C964.575684,234.064056 961.390869,233.468536 958.193787,232.948181 
	C953.801086,232.233215 954.035767,228.924652 953.999268,225.692215 
	C953.963074,222.487640 954.264282,219.184891 958.313232,219.118515 
	C970.724060,218.915039 983.142700,218.897598 995.552917,219.115219 
	C999.533142,219.185013 999.932678,222.622925 999.946228,225.739059 
	C999.960266,228.973389 999.852722,232.756821 995.576721,232.853531 
	C988.085144,233.022949 984.942078,237.478348 982.020874,243.609344 
	C971.078857,266.574310 959.452759,289.213379 948.513306,312.179504 
	C942.124084,325.593048 935.757935,338.878906 924.152710,349.227600 
z"/>
<path fill="#1B2141" opacity="1.000000" stroke="none" 
	d="
M1475.469727,297.652344 
	C1479.182983,296.037170 1482.519775,294.548706 1485.868164,293.086304 
	C1490.692383,290.979248 1493.166870,291.722504 1495.428711,295.928192 
	C1498.165771,301.017609 1497.656982,305.366302 1493.347656,307.645569 
	C1489.122070,309.880524 1484.585571,311.685333 1479.998535,313.051056 
	C1463.806519,317.871857 1447.400391,319.482178 1431.044678,314.068756 
	C1413.906128,308.396301 1402.225708,291.934967 1402.007812,273.924896 
	C1401.887085,263.953064 1401.413086,253.944473 1405.789429,244.535431 
	C1413.346436,228.287842 1426.017822,219.260681 1443.766479,216.878067 
	C1458.427490,214.909927 1471.828491,217.390869 1483.563843,226.776031 
	C1492.288818,233.753723 1496.637695,243.280212 1498.899902,253.909271 
	C1499.517700,256.812134 1499.885132,259.814453 1499.948486,262.780060 
	C1500.100220,269.905182 1499.047974,270.951691 1492.011597,270.980743 
	C1479.352661,271.033020 1466.693359,270.998260 1454.034302,271.002106 
	C1444.040283,271.005157 1434.044556,271.122406 1424.053101,270.965393 
	C1419.656860,270.896362 1418.542847,272.663910 1419.393555,276.777283 
	C1422.286743,290.768463 1431.208984,300.400116 1447.206909,301.151917 
	C1456.783447,301.601959 1465.989380,300.473328 1475.469727,297.652344 
M1432.115234,237.525208 
	C1425.507324,241.617905 1422.244019,247.782364 1420.539062,255.316284 
	C1441.232544,255.316284 1461.336060,255.316284 1481.740479,255.316284 
	C1480.473022,247.589645 1477.495972,241.615051 1471.414673,237.742188 
	C1458.716064,229.655121 1445.746826,230.268173 1432.115234,237.525208 
z"/>
<path fill="#1B2141" opacity="1.000000" stroke="none" 
	d="
M857.168335,259.072632 
	C853.828430,259.568970 850.767456,260.211426 847.793274,259.931763 
	C844.563049,259.627960 843.039673,257.219879 843.023743,253.939240 
	C842.957520,240.294052 831.694519,233.722672 820.792603,233.058243 
	C812.670776,232.563263 804.680054,232.475372 797.119080,236.850143 
	C785.117249,243.794388 778.690857,257.317017 780.620850,271.454651 
	C781.930542,281.049042 785.419739,289.261444 793.585693,295.098419 
	C804.322266,302.772949 816.192505,302.351562 827.966003,299.259338 
	C834.416626,297.565186 840.559448,294.207336 846.403564,290.840363 
	C851.749207,287.760620 854.700684,287.420074 857.559692,291.340576 
	C861.161316,296.279388 860.901123,301.309906 855.822571,304.299927 
	C849.299133,308.140686 842.495117,311.952972 835.312744,314.132629 
	C820.558899,318.610016 805.429932,319.316193 790.954163,312.878601 
	C769.387146,303.287415 758.526550,278.559113 764.546875,253.886917 
	C769.690247,232.808655 784.723145,219.772415 805.729736,216.792145 
	C819.497314,214.838898 831.200500,218.577484 842.319763,227.090866 
	C842.603760,225.777115 842.893433,224.893250 842.973999,223.990707 
	C843.502380,218.077499 845.915894,215.806229 851.468018,216.066483 
	C856.991028,216.325378 858.960205,218.420746 858.983459,224.262222 
	C859.021301,233.754272 859.079590,243.247986 858.925171,252.737671 
	C858.892090,254.769913 857.988281,256.787964 857.168335,259.072632 
z"/>
<path fill="#1B2141" opacity="1.000000" stroke="none" 
	d="
M1052.910156,189.018112 
	C1058.857544,189.728180 1060.809082,191.990433 1060.942627,198.545959 
	C1061.102295,206.373978 1061.116455,214.209335 1060.969971,222.037323 
	C1060.901611,225.682114 1062.286255,227.068573 1065.945679,227.030533 
	C1077.940796,226.905853 1089.938354,226.970673 1101.934692,227.017166 
	C1107.501099,227.038742 1109.729248,229.119125 1109.898193,234.236115 
	C1110.054321,238.970779 1107.492432,241.811356 1102.176514,241.900055 
	C1090.349854,242.097321 1078.515259,242.142166 1066.689575,241.931824 
	C1062.310913,241.853943 1060.857544,243.378601 1060.934082,247.719482 
	C1061.151245,260.045441 1060.901367,272.379028 1061.052490,284.706940 
	C1061.158081,293.312744 1066.283569,301.359894 1077.523315,301.207672 
	C1088.384155,301.060547 1097.550171,297.091858 1106.548096,291.941711 
	C1110.865845,289.470398 1113.975220,289.811523 1116.548096,293.322723 
	C1119.851807,297.831268 1119.857788,302.768158 1115.912598,305.291992 
	C1100.839355,314.934235 1084.495605,319.716705 1066.597046,315.991364 
	C1054.341431,313.440460 1045.852905,303.585083 1045.125122,290.982452 
	C1044.320557,277.048248 1044.295288,263.067474 1044.013794,249.105316 
	C1043.871460,242.039978 1043.954346,242.035522 1036.700073,242.004532 
	C1032.534668,241.986740 1028.364014,242.109497 1024.205322,241.935791 
	C1018.674011,241.704742 1016.895325,239.506348 1017.014526,233.495773 
	C1017.116150,228.372955 1018.434082,227.135178 1024.216309,227.028732 
	C1028.880249,226.942886 1033.557983,226.792923 1038.208618,227.051193 
	C1042.471313,227.287918 1044.222412,225.848373 1044.066650,221.378876 
	C1043.794189,213.557510 1043.959961,205.719162 1044.017578,197.888489 
	C1044.067505,191.101059 1045.722168,189.419250 1052.910156,189.018112 
z"/>
<path fill="#1B2141" opacity="1.000000" stroke="none" 
	d="
M1286.286865,314.996307 
	C1279.352539,314.686188 1276.992798,312.562531 1277.251099,307.278290 
	C1277.474243,302.717773 1280.631714,300.086487 1286.242188,300.030304 
	C1294.403931,299.948608 1302.569580,299.869019 1310.728394,300.039795 
	C1314.540283,300.119568 1316.053955,298.821442 1316.041260,294.865509 
	C1315.936890,262.548859 1315.946045,230.231613 1316.028076,197.914841 
	C1316.037354,194.230408 1314.624512,192.896729 1311.008545,192.970734 
	C1303.682251,193.120682 1296.350342,193.000748 1289.020752,192.983185 
	C1284.889526,192.973282 1281.906372,191.912231 1281.957886,186.810455 
	C1282.019531,180.705658 1283.561401,178.188095 1288.895264,178.102264 
	C1300.885864,177.909332 1312.883667,177.907379 1324.874512,178.086578 
	C1331.071899,178.179169 1332.948120,180.486267 1332.969849,187.464767 
	C1333.032349,207.454498 1332.998291,227.444534 1333.000732,247.434448 
	C1333.002686,262.426880 1332.993164,277.419342 1333.006592,292.411774 
	C1333.013306,299.974548 1333.031250,299.979187 1340.813965,299.996002 
	C1348.809814,300.013306 1356.809937,299.866974 1364.800293,300.080231 
	C1371.171997,300.250275 1374.323608,305.415436 1372.055054,311.183228 
	C1370.556030,314.994659 1367.401245,314.979950 1364.209961,314.983856 
	C1345.386108,315.006927 1326.562256,314.999634 1307.738403,315.001373 
	C1300.741943,315.002014 1293.745483,314.999542 1286.286865,314.996307 
z"/>
<path fill="#1B2141" opacity="1.000000" stroke="none" 
	d="
M220.000244,385.001831 
	C205.776886,385.485352 192.169327,385.266113 179.851303,377.929413 
	C162.007553,367.301514 151.928955,351.711151 151.108475,330.874756 
	C150.545303,316.572968 150.971085,302.231018 151.008057,287.907166 
	C151.033234,278.151733 150.341965,279.124878 160.515503,278.901093 
	C164.228775,303.679077 173.970291,325.621918 192.058807,343.695038 
	C210.154678,361.775482 231.922791,371.881622 257.005402,375.256744 
	C257.005402,377.249573 256.902039,378.721863 257.025543,380.174896 
	C257.344788,383.930206 255.535126,385.081268 251.978912,385.035980 
	C241.487549,384.902344 230.993286,384.996704 220.000244,385.001831 
z"/>
<path fill="#1B2141" opacity="1.000000" stroke="none" 
	d="
M385.000977,329.872681 
	C384.559509,356.091339 365.225555,379.263580 339.786591,383.751312 
	C330.234863,385.436371 320.250671,384.759827 310.459534,384.968994 
	C302.801819,385.132629 295.137756,385.006409 287.476532,385.000183 
	C278.639008,384.993011 278.639008,384.988831 279.136444,375.671509 
	C333.506989,365.740021 365.720032,333.562408 375.623627,279.194153 
	C376.006256,279.027771 376.308838,278.773712 376.597870,278.788330 
	C384.993835,279.212250 384.998199,279.216583 385.000610,287.919952 
	C385.004456,301.743500 385.001495,315.567017 385.000977,329.872681 
z"/>
<path fill="#1B2141" opacity="1.000000" stroke="none" 
	d="
M247.422852,162.358353 
	C197.235947,174.650131 169.594208,207.173416 160.226074,256.849823 
	C159.997009,256.926117 159.539413,257.222565 159.093887,257.205475 
	C151.012878,256.894745 151.004715,256.886688 151.000519,248.758011 
	C150.993469,235.095673 150.993607,221.433334 150.999191,207.770996 
	C151.012299,175.739258 175.791183,151.011017 207.886749,150.999069 
	C221.382477,150.994034 234.878189,150.994415 248.373917,150.999802 
	C257.200836,151.003311 257.200836,151.009308 256.925873,160.519455 
	C253.951630,161.076477 250.886566,161.650497 247.422852,162.358353 
z"/>
<path fill="#1B2141" opacity="1.000000" stroke="none" 
	d="
M282.457520,151.069458 
	C298.576050,151.027008 314.242096,150.987289 329.908112,151.005295 
	C351.691437,151.030350 373.410980,165.736328 380.764648,186.338043 
	C383.225067,193.231125 384.472137,200.812271 384.821991,208.148132 
	C385.456390,221.450775 385.024719,234.805420 384.993988,248.138260 
	C384.971252,258.010162 385.543762,256.825439 375.645691,257.113342 
	C365.925476,202.612488 333.874451,170.067337 278.622925,160.290070 
	C280.131927,157.203812 276.500549,152.710373 282.457520,151.069458 
z"/>
<path fill="#1B2141" opacity="1.000000" stroke="none" 
	d="
M522.260803,287.215881 
	C513.582886,295.709991 502.980927,296.911469 493.537231,290.703857 
	C485.075897,285.141968 481.422546,273.724670 485.462463,264.299835 
	C489.119476,255.768372 495.888763,251.016617 505.135406,250.625244 
	C513.503174,250.271088 520.264832,253.746109 524.648254,261.103149 
	C529.211243,268.761658 529.141907,276.476532 524.506592,284.111328 
	C523.907410,285.098297 523.181763,286.008545 522.260803,287.215881 
z"/>
<path fill="#1B2141" opacity="1.000000" stroke="none" 
	d="
M37.784393,251.946320 
	C47.270191,256.343872 52.404419,263.179138 51.986439,273.570648 
	C51.612415,282.869354 46.633739,289.018219 38.449757,292.731476 
	C30.411051,296.378815 22.706432,294.958313 16.192579,289.480164 
	C9.225032,283.620453 6.249970,275.926941 8.968414,266.767059 
	C11.609147,257.869019 17.300453,252.105606 26.741518,251.067963 
	C30.232317,250.684280 33.857487,251.523178 37.784393,251.946320 
z"/>
<path fill="#1B2141" opacity="1.000000" stroke="none" 
	d="
M39.685036,346.788727 
	C38.632969,348.452087 37.594082,349.740540 36.600578,351.063080 
	C31.243454,358.194366 31.179335,366.400696 36.410152,373.605896 
	C38.733555,376.806274 43.555428,378.167908 47.144161,376.241180 
	C51.380554,373.966766 52.066540,369.899719 51.675770,365.549072 
	C51.157520,359.779144 50.265316,354.025543 50.079597,348.247406 
	C49.844452,340.931244 52.896549,336.913574 59.465706,334.773834 
	C65.972092,332.654602 73.120972,334.845276 76.943321,339.843414 
	C81.811172,346.208679 82.802933,353.401184 82.830795,360.504303 
	C84.185272,362.385071 86.920403,364.617645 86.552971,366.059631 
	C86.067947,367.963165 83.285530,369.468719 81.232758,370.723297 
	C79.719673,371.647980 77.820335,372.200500 76.043549,372.357269 
	C74.421585,372.500397 71.808960,372.406708 71.293121,371.486633 
	C70.543152,370.148987 70.616554,367.511810 71.502373,366.237793 
	C75.682129,360.226166 75.680283,354.175354 72.407951,347.965363 
	C70.457848,344.264557 67.892326,341.336151 62.963490,342.546539 
	C57.961140,343.775055 57.740608,347.628418 58.074951,351.567078 
	C58.550964,357.174561 59.727436,362.742889 59.908424,368.350433 
	C60.204247,377.516113 56.128864,382.868530 48.047726,384.983917 
	C39.874279,387.123535 33.354225,384.129822 28.787691,376.531677 
	C24.979963,370.196014 24.131453,363.513672 25.766977,356.087646 
	C24.401211,355.817139 22.916042,355.930481 22.049917,355.252716 
	C20.851717,354.315063 19.448196,352.814331 19.384319,351.494171 
	C19.325274,350.273834 20.637354,348.365173 21.830078,347.820435 
	C25.743271,346.033203 29.819464,344.535522 33.946514,343.308228 
	C36.578854,342.525391 38.936691,343.280457 39.685036,346.788727 
z"/>
<path fill="#1B2141" opacity="1.000000" stroke="none" 
	d="
M368.072357,470.728455 
	C375.254974,476.414398 376.113373,485.061920 379.470947,492.345551 
	C381.142212,495.971100 382.342651,498.872070 387.147736,498.208679 
	C388.234131,498.058655 390.382782,499.632935 390.589111,500.695679 
	C390.811737,501.842438 389.613647,504.104858 388.533478,504.496490 
	C385.991882,505.417969 382.838135,506.482788 380.503204,505.726440 
	C376.703674,504.495667 375.226746,505.909821 372.701141,508.402496 
	C369.149078,511.908203 364.730042,514.955444 360.130615,516.885071 
	C352.539490,520.069763 344.597076,516.677429 341.547089,509.957031 
	C338.239960,502.670044 340.706024,494.940704 348.399231,491.003540 
	C354.087097,488.092590 360.292542,486.192963 366.507935,483.748199 
	C366.702057,478.364532 362.509338,474.422943 357.214661,476.645142 
	C351.805969,478.915222 347.046661,482.693237 341.838806,485.507050 
	C340.439545,486.263092 337.662231,486.661377 336.913055,485.882111 
	C335.940186,484.870239 335.608856,482.117004 336.305267,480.805908 
	C341.094727,471.789398 358.591980,466.207275 368.072357,470.728455 
M369.600983,501.002686 
	C370.113708,498.581451 370.626434,496.160187 371.139130,493.738953 
	C368.726074,493.443970 366.156799,492.481964 363.934692,493.002380 
	C360.108337,493.898468 356.378815,495.474274 352.829071,497.214478 
	C348.899597,499.140869 347.958130,502.820465 349.608582,506.551971 
	C351.327728,510.438843 355.329010,511.066376 358.582611,509.411469 
	C362.440338,507.449280 365.675812,504.263702 369.600983,501.002686 
z"/>
<path fill="#1B2141" opacity="1.000000" stroke="none" 
	d="
M491.716187,384.970642 
	C478.890381,384.906769 468.847931,378.608215 465.865540,368.750885 
	C463.087952,359.570526 465.091766,351.176636 471.600922,344.306427 
	C477.629639,337.943359 485.349304,336.863159 493.648102,339.147919 
	C498.000854,340.346344 498.817719,342.358276 496.586243,347.637207 
	C492.780121,356.641327 488.818390,365.579620 484.952362,374.475739 
	C489.571869,378.403381 496.010132,377.511108 499.702148,372.435883 
	C503.533875,367.168671 505.239563,361.240540 505.103821,354.668457 
	C505.062836,352.683990 505.570404,349.902679 506.902130,348.860077 
	C508.884735,347.307861 511.773193,347.318756 512.784180,350.726410 
	C516.726746,364.015594 505.562500,382.503662 491.716187,384.970642 
M473.412720,366.728210 
	C474.548889,368.225616 475.685059,369.723022 477.578430,372.218384 
	C481.532288,363.081940 485.001556,355.065308 488.582855,346.789795 
	C478.084198,345.223236 470.242523,355.862366 473.412720,366.728210 
z"/>
<path fill="#1B2141" opacity="1.000000" stroke="none" 
	d="
M165.413666,504.886047 
	C164.844833,495.887909 164.507935,487.266937 163.949036,478.660400 
	C163.700333,474.830444 164.152832,470.727661 160.139069,467.998932 
	C159.320358,467.442291 159.223145,464.779846 159.799789,463.566406 
	C160.214706,462.693268 162.556625,461.917847 163.600235,462.299255 
	C168.883484,464.230164 174.116394,466.368896 179.133835,468.897308 
	C180.125412,469.397003 180.663101,472.063690 180.322250,473.466736 
	C180.117447,474.309723 177.828857,475.021179 176.437347,475.100494 
	C174.908768,475.187714 173.334915,474.481018 171.387878,474.029022 
	C171.891022,482.842407 172.366684,491.174347 172.842346,499.506256 
	C173.292404,499.724426 173.742462,499.942596 174.192520,500.160736 
	C180.434952,494.726593 186.677383,489.292450 193.260254,483.561920 
	C191.738144,482.255035 190.601944,481.676422 190.112000,480.754395 
	C189.548950,479.694824 189.061569,478.126434 189.460953,477.158478 
	C189.845139,476.227325 191.684158,474.992004 192.401917,475.246979 
	C197.825668,477.174133 203.184647,479.318970 208.405945,481.736816 
	C209.076385,482.047302 209.372040,484.575439 208.873199,485.608948 
	C208.368332,486.654968 206.328629,487.995789 205.535980,487.694672 
	C201.244614,486.064240 198.883148,489.204590 196.404068,491.279785 
	C186.239334,499.788330 176.305069,508.571747 166.257004,517.220337 
	C160.637131,522.057434 154.343948,525.147583 146.682098,523.898438 
	C144.611618,523.560852 142.363541,522.973206 140.735092,521.771240 
	C139.773315,521.061401 139.078537,518.285767 139.659790,517.565063 
	C140.681824,516.297791 143.070938,514.901428 144.370773,515.289612 
	C152.886734,517.832703 158.791885,513.604187 164.323441,508.211639 
	C165.024216,507.528473 165.158478,506.264160 165.413666,504.886047 
z"/>
<path fill="#1B2141" opacity="1.000000" stroke="none" 
	d="
M30.988731,169.897598 
	C25.032354,172.084473 22.540291,176.701645 21.278242,182.033646 
	C20.516388,185.252365 21.103891,188.337570 24.527037,190.138870 
	C27.829258,191.876526 30.437304,190.707458 32.360996,188.047256 
	C35.268826,184.026138 37.863636,179.779922 40.636467,175.659637 
	C45.799122,167.988205 52.110729,166.124878 60.399364,169.778946 
	C67.137993,172.749680 70.642570,180.086945 67.967873,188.076920 
	C66.186394,193.398621 62.797192,198.182129 60.271690,202.935242 
	C60.453518,204.813858 61.413067,207.234421 60.699020,208.964111 
	C59.355026,212.219803 56.624722,210.581726 54.290318,209.703827 
	C51.649071,208.710526 48.825348,208.101395 46.349079,206.810806 
	C45.003082,206.109283 43.380306,204.308685 43.426777,203.061386 
	C43.466740,201.988693 45.551609,200.435684 46.984631,200.061508 
	C56.434689,197.594009 61.098263,192.336380 61.003174,184.002594 
	C60.963982,180.567566 60.169395,177.578140 56.570274,176.471832 
	C52.657261,175.269043 49.337723,176.396698 47.053772,179.941315 
	C44.536259,183.848465 42.287060,187.951416 39.513973,191.665146 
	C36.042030,196.314789 31.962591,200.289352 25.304890,198.831085 
	C19.610182,197.583771 15.631862,194.265396 14.425014,188.512756 
	C13.022097,181.825516 14.403305,175.613403 19.125679,170.421143 
	C20.127970,169.319122 21.353371,168.420013 21.371424,168.404053 
	C21.371424,164.891281 20.543591,162.012802 21.619387,160.726746 
	C22.571426,159.588638 25.645893,160.080185 27.776327,160.133301 
	C28.890327,160.161072 30.158792,160.557449 31.058632,161.203583 
	C32.774223,162.435501 34.275612,163.965714 35.865929,165.372086 
	C34.362190,166.846436 32.858448,168.320786 30.988731,169.897598 
z"/>
<path fill="#1B2141" opacity="1.000000" stroke="none" 
	d="
M376.104065,59.117104 
	C375.086304,61.802383 374.276764,64.163376 373.225891,66.411575 
	C371.885193,69.279892 371.504150,71.623962 374.774139,73.660332 
	C375.679871,74.224388 376.347198,77.021065 375.805023,77.642143 
	C374.912689,78.664406 372.704529,79.473549 371.482635,79.069016 
	C369.254517,78.331306 366.273621,77.075928 365.528870,75.251755 
	C364.137238,71.843254 361.919342,71.837120 359.209015,72.003609 
	C351.783447,72.459755 345.032684,71.179863 339.747070,65.271820 
	C336.108551,61.204834 336.440643,56.769417 338.163513,52.236671 
	C339.838348,47.830368 343.204132,45.510410 347.971008,45.006702 
	C356.359894,44.120266 363.003235,48.176983 369.588776,52.393600 
	C373.283051,48.498177 373.062927,43.596512 368.329712,41.452381 
	C364.088837,39.531265 359.207458,38.938728 354.553223,38.050621 
	C352.143158,37.590748 349.190979,38.261349 349.183655,34.509262 
	C349.176300,30.758850 352.165100,30.625441 354.527771,31.108770 
	C360.765228,32.384762 367.308746,33.267658 372.983521,35.910671 
	C379.989563,39.173687 381.321686,44.364288 378.896973,51.786251 
	C378.125916,54.146317 377.109314,56.426159 376.104065,59.117104 
M348.924988,63.780952 
	C353.644440,65.664619 358.504456,66.393387 363.340668,64.574966 
	C364.855377,64.005432 366.488129,62.528076 367.036224,61.076984 
	C367.354553,60.234215 365.917450,58.093658 364.761292,57.446873 
	C361.193176,55.450783 357.518951,53.220947 353.610962,52.414539 
	C351.264160,51.930290 347.473907,53.171562 345.988007,54.990128 
	C343.615021,57.894360 345.036285,61.237492 348.924988,63.780952 
z"/>
<path fill="#1B2141" opacity="1.000000" stroke="none" 
	d="
M112.384445,450.523987 
	C112.334015,448.735046 112.027641,446.998016 112.678749,445.767761 
	C116.687485,438.193420 113.291199,429.034241 105.150444,425.957092 
	C97.511292,423.069550 89.539513,425.807495 85.756195,432.618195 
	C81.508026,440.265717 82.869476,447.364990 90.114380,452.595581 
	C93.273911,454.876678 97.157623,456.128967 100.518440,458.168243 
	C102.130081,459.146179 104.421516,460.869263 104.419807,462.252411 
	C104.416222,465.135193 101.952827,466.088776 99.046211,465.986603 
	C89.267036,465.642822 76.254471,453.143433 75.075500,442.817322 
	C73.803009,431.671967 81.847656,419.967194 92.791389,417.041107 
	C106.266396,413.438293 117.996384,420.967560 121.289406,434.130035 
	C124.387001,435.815399 127.641167,436.486298 128.526855,438.308472 
	C130.119507,441.585022 127.028358,443.505219 124.533730,445.339203 
	C122.538704,446.806000 120.850525,448.694763 119.052307,450.423431 
	C116.989616,452.406342 114.878860,453.143982 112.384445,450.523987 
z"/>
<path fill="#1B2141" opacity="1.000000" stroke="none" 
	d="
M476.642822,205.389709 
	C473.653992,199.693878 469.519440,194.570709 468.348755,188.841888 
	C465.523346,175.015549 475.164337,168.159058 485.940826,165.342987 
	C495.782288,162.771271 505.779022,168.981064 509.512299,179.167587 
	C513.085632,188.917801 509.644257,198.427856 500.714874,203.566635 
	C497.371185,205.490906 495.103943,205.425522 493.451385,201.176636 
	C490.095154,192.547577 486.261597,184.104187 482.633240,175.604080 
	C476.492828,177.896942 473.455475,182.829666 475.522644,188.494278 
	C477.133667,192.908966 479.920563,196.949051 482.539886,200.921539 
	C484.197571,203.435623 488.142853,205.603394 484.372070,208.705353 
	C480.954407,211.516815 478.762054,208.252884 476.642822,205.389709 
M503.017395,182.663971 
	C499.718719,174.527679 496.161835,171.886520 489.184326,172.985825 
	C492.280334,180.330872 495.311249,187.521484 498.535431,195.170639 
	C503.431763,191.766266 504.762329,188.124756 503.017395,182.663971 
z"/>
<path fill="#1B2141" opacity="1.000000" stroke="none" 
	d="
M167.626373,51.366955 
	C171.427185,54.549591 174.936905,57.530991 179.381073,61.306187 
	C179.381073,52.848362 179.381073,45.543762 179.381073,37.970592 
	C178.142776,37.838680 176.773392,37.961205 175.622711,37.517075 
	C172.802582,36.428581 172.276993,33.204414 174.851257,31.798702 
	C178.770706,29.658400 182.920761,27.885880 187.114410,26.341452 
	C188.133652,25.966087 189.948166,26.801346 190.930725,27.631693 
	C191.518463,28.128378 191.702850,30.258835 191.213043,30.695675 
	C186.155869,35.205910 187.543610,41.356373 187.088455,46.893967 
	C186.151199,58.296886 185.814148,69.747971 184.983047,81.161247 
	C184.537247,87.283325 181.010635,91.714378 175.682953,94.408531 
	C174.193100,95.161934 171.915939,94.358429 169.999908,94.269119 
	C170.485672,92.287979 170.328186,89.291794 171.570496,88.504517 
	C176.487823,85.388344 178.509384,80.800507 178.678085,75.540756 
	C178.762375,72.912598 177.716721,69.413597 175.881180,67.711311 
	C169.815445,62.085930 163.171341,57.081852 156.718063,51.877960 
	C154.604401,50.173508 152.790237,47.689819 149.328400,49.403263 
	C148.841385,49.644321 146.491531,47.799450 146.451813,46.858967 
	C146.397247,45.566700 147.397186,43.591133 148.518738,43.004250 
	C152.328323,41.010799 156.309891,39.250214 160.397659,37.934822 
	C161.881531,37.457333 163.848938,38.482517 165.595718,38.822067 
	C164.760880,40.536919 163.986679,42.285786 163.055054,43.946327 
	C162.767441,44.458950 162.050751,44.730827 160.950058,45.539261 
	C163.225815,47.544594 165.280533,49.355156 167.626373,51.366955 
z"/>
<path fill="#1B2141" opacity="1.000000" stroke="none" 
	d="
M272.428284,499.935974 
	C265.344635,498.518524 265.082031,498.725006 265.003387,505.300140 
	C264.963562,508.628754 265.058563,511.967987 264.825806,515.283691 
	C264.013306,526.859436 270.075958,527.369263 279.084045,525.296631 
	C281.142548,524.822937 282.955505,522.975342 284.983765,522.769836 
	C286.741608,522.591797 288.644409,523.844238 290.483124,524.464478 
	C289.858734,526.171204 289.743896,528.663940 288.525238,529.454041 
	C281.842072,533.787109 274.284790,535.235474 266.557709,533.540466 
	C259.409882,531.972534 254.954849,523.193665 256.254242,514.746582 
	C256.555664,512.787048 256.925720,510.814453 256.963562,508.842133 
	C257.130890,500.122589 257.067413,500.261047 248.493317,498.799194 
	C246.948761,498.535858 245.689697,496.598114 244.298828,495.433441 
	C245.666931,494.304688 246.926773,492.382233 248.421036,492.178406 
	C256.905518,491.021210 256.908020,491.160797 257.016388,482.719879 
	C257.037659,481.064331 256.685059,479.013000 257.508270,477.861542 
	C258.456757,476.534821 260.464417,475.519104 262.119812,475.334686 
	C262.931335,475.244263 264.305786,477.206482 264.835999,478.484314 
	C265.310699,479.628387 264.985291,481.107971 264.998016,482.439667 
	C265.098022,492.899597 264.048401,491.854340 274.827393,492.034424 
	C278.117279,492.089355 281.463470,492.284546 284.652893,492.999695 
	C285.815918,493.260468 287.590546,495.536194 287.335846,496.333466 
	C286.884369,497.746674 285.206665,499.552307 283.843567,499.738098 
	C280.245544,500.228638 276.541107,499.938995 272.428284,499.935974 
z"/>
<path fill="#1B2141" opacity="1.000000" stroke="none" 
	d="
M434.412750,463.360504 
	C437.895599,460.079681 441.185181,457.091095 445.108337,453.526917 
	C433.829376,441.611206 422.929382,430.095886 411.567322,418.092377 
	C408.911163,420.682404 406.606964,423.002838 404.219788,425.234467 
	C402.194824,427.127594 399.937561,428.931549 397.391693,426.182190 
	C395.067657,423.672394 396.677307,421.632721 398.679138,419.826508 
	C402.253632,416.601288 405.858124,413.408508 409.393188,410.140564 
	C411.991150,407.738953 413.787903,409.181976 415.688904,411.162659 
	C425.018097,420.882690 434.444214,430.510315 443.713287,440.287048 
	C445.879028,442.571381 447.566620,445.308990 449.633392,448.049042 
	C455.134338,443.316132 459.243835,439.780457 463.248535,436.334869 
	C468.721771,439.091736 469.085480,440.455750 465.155029,444.293152 
	C457.183594,452.075745 449.151154,459.799896 440.962860,467.351929 
	C439.746979,468.473328 437.546478,468.527191 435.801514,469.074921 
	C435.274170,467.267517 434.746796,465.460114 434.412750,463.360504 
z"/>
<path fill="#1B2141" opacity="1.000000" stroke="none" 
	d="
M90.177452,86.798721 
	C90.758881,85.577469 91.233009,84.467468 91.264961,83.344879 
	C91.361168,79.963593 94.324608,77.895782 96.951935,79.824432 
	C100.281509,82.268570 103.435188,85.049988 106.199860,88.106445 
	C107.028542,89.022568 106.914917,91.806068 106.103256,92.881065 
	C105.410065,93.799164 102.807442,94.165535 101.549652,93.620850 
	C94.189156,90.433334 85.528046,94.795967 84.130600,102.659935 
	C82.903748,109.563934 87.295799,117.580940 93.418739,119.613991 
	C100.059532,121.818985 106.920334,118.845886 110.468781,111.911545 
	C111.968613,108.980591 112.721840,105.672348 114.159142,102.702415 
	C114.786339,101.406410 116.279640,100.529564 117.379616,99.462364 
	C118.563751,100.841660 120.553558,102.094574 120.793167,103.622040 
	C121.854584,110.388382 113.879768,122.200439 106.186073,125.897316 
	C98.313164,129.680313 90.223923,128.007736 83.632690,122.242317 
	C69.487350,109.869255 76.867386,90.027328 90.177452,86.798721 
z"/>
<path fill="#1B2141" opacity="1.000000" stroke="none" 
	d="
M256.841614,26.267479 
	C254.678528,25.225569 252.524628,24.787523 250.566742,23.911446 
	C249.005997,23.213079 247.684280,21.980478 246.256470,20.985027 
	C247.526154,20.001036 248.685226,18.384964 250.084259,18.140142 
	C256.917664,16.944338 256.773590,17.066572 257.079742,9.952368 
	C257.204498,7.052968 255.239731,2.277439 260.613586,2.279798 
	C266.195679,2.282249 263.669830,7.170160 263.909729,9.943990 
	C264.457092,16.273363 264.911041,16.942068 271.438080,16.994644 
	C274.597076,17.020090 277.797668,16.741613 280.896606,17.182688 
	C282.301422,17.382641 283.504608,18.998884 284.799255,19.972645 
	C283.604340,21.270050 282.540924,23.497847 281.189606,23.688902 
	C277.270813,24.242960 273.235535,24.057631 269.247742,24.010548 
	C266.344238,23.976269 264.949982,25.150620 265.017792,28.143124 
	C265.108185,32.131508 264.871460,36.132427 265.081451,40.111805 
	C265.420502,46.536350 269.254089,49.316235 275.516632,47.569061 
	C278.362091,46.775215 280.932373,44.938457 283.790070,44.268669 
	C285.255066,43.925308 287.528381,44.682835 288.559326,45.772572 
	C289.120514,46.365776 288.346527,49.343983 287.319061,50.134674 
	C281.025177,54.978340 273.707947,56.160328 266.134125,54.365826 
	C261.170502,53.189770 258.348969,48.408352 258.011902,42.517853 
	C257.709686,37.236095 257.298492,31.960569 256.841614,26.267479 
z"/>
<path fill="#1B2141" opacity="1.000000" stroke="none" 
	d="
M456.050781,83.232254 
	C455.107605,81.374588 454.046082,79.739677 452.819916,78.239311 
	C450.955078,75.957451 446.767029,73.937859 449.346619,70.667679 
	C452.581543,66.566658 455.052490,70.831139 457.355072,72.901863 
	C459.457886,74.792938 461.288544,76.988029 463.402618,78.864975 
	C466.648010,81.746353 466.391541,84.244972 463.351379,87.217262 
	C454.298553,96.068016 445.444458,105.121811 436.423035,114.005173 
	C435.130157,115.278275 433.342133,116.048553 431.180511,117.439354 
	C434.995575,121.365311 437.912018,123.834023 440.094391,126.836319 
	C441.190277,128.343948 440.950745,130.822281 441.315125,132.861618 
	C439.306244,132.497772 436.645782,132.828415 435.395813,131.655655 
	C428.110016,124.819809 421.051147,117.729332 414.194092,110.462135 
	C413.092651,109.294823 413.391418,106.806374 413.042908,104.928642 
	C414.921417,105.352051 417.284821,105.210030 418.576599,106.317680 
	C421.189026,108.557739 423.220001,111.475899 426.081146,114.800468 
	C436.662109,103.683769 446.260406,93.599518 456.050781,83.232254 
z"/>
<path fill="#1B2141" opacity="1.000000" stroke="none" 
	d="
M268.928162,360.975800 
	C269.944305,369.847473 271.045502,378.360474 271.811432,386.903503 
	C272.002991,389.039825 271.525543,391.494537 270.521637,393.352325 
	C270.120392,394.094879 267.160217,394.186066 265.927856,393.524689 
	C264.876953,392.960724 264.014374,390.840057 264.130768,389.500305 
	C264.959198,379.965424 266.051453,370.453156 267.148346,360.943939 
	C267.167969,360.774017 268.284485,360.730652 268.928162,360.975800 
z"/>
<path fill="#1B2141" opacity="1.000000" stroke="none" 
	d="
M165.974121,265.998840 
	C169.808517,266.453918 173.188766,266.903656 176.569031,267.353394 
	C176.582291,267.786194 176.595566,268.218994 176.608841,268.651825 
	C170.356949,269.422821 164.106689,270.207428 157.852417,270.958618 
	C155.056824,271.294403 152.248917,271.826294 149.454498,271.780975 
	C147.120117,271.743195 144.557205,271.426422 142.593475,270.336243 
	C141.860870,269.929535 141.957291,265.771973 142.684921,265.421783 
	C144.751205,264.427368 147.364395,264.106750 149.714554,264.258728 
	C154.998322,264.600372 160.253296,265.387634 165.974121,265.998840 
z"/>
<path fill="#1B2141" opacity="1.000000" stroke="none" 
	d="
M362.416962,266.966370 
	C371.486511,265.972992 380.166229,264.959106 388.857239,264.054138 
	C391.777374,263.750092 394.071838,264.230957 393.997803,268.159912 
	C393.928406,271.844116 391.707764,272.211090 389.037811,271.942322 
	C379.156555,270.947510 369.286530,269.841675 359.420227,267.611084 
	C360.290649,267.403503 361.161102,267.195953 362.416962,266.966370 
z"/>
<path fill="#1B2141" opacity="1.000000" stroke="none" 
	d="
M264.042603,147.936646 
	C263.721649,143.986725 264.487915,141.554230 268.849030,142.069000 
	C273.149536,142.576614 272.047699,145.809631 271.820831,148.173080 
	C270.911896,157.642609 269.727692,167.085724 268.645294,176.538605 
	C268.192688,176.551041 267.740112,176.563461 267.287506,176.575897 
	C266.209717,167.177246 265.131897,157.778595 264.042603,147.936646 
z"/>
<path fill="#4C6971" opacity="1.000000" stroke="none" 
	d="
M245.998047,256.999207 
	C245.989258,262.161560 245.940903,266.824615 245.986938,271.486725 
	C246.013367,274.163116 245.397049,275.965240 242.143265,275.976746 
	C239.108231,275.987457 237.996613,274.683685 238.012558,271.772766 
	C238.074570,260.449585 237.846283,249.121140 238.119507,237.804169 
	C238.291809,230.667984 243.775879,225.398392 250.943481,225.089447 
	C256.594696,224.845856 262.273193,224.841980 267.924316,225.085846 
	C275.502533,225.412872 280.720795,231.582123 280.888763,241.109207 
	C281.167603,256.924133 280.950745,272.747467 280.989258,288.567200 
	C280.995911,291.305054 280.258392,292.940216 277.064850,292.984039 
	C273.499603,293.032990 272.996643,291.034790 273.002472,288.194427 
	C273.033630,273.040649 273.016449,257.886810 272.997040,242.732971 
	C272.985840,233.960098 272.030060,233.018799 263.187195,233.003555 
	C259.357422,232.996948 255.524048,232.941818 251.698761,233.083145 
	C247.992538,233.220062 245.885254,234.945480 245.981888,239.015305 
	C246.120163,244.840225 246.004990,250.671143 245.998047,256.999207 
z"/>
<path fill="#4C6971" opacity="1.000000" stroke="none" 
	d="
M304.353729,222.827362 
	C298.785004,210.592300 289.782471,202.868637 277.313629,199.375626 
	C276.675262,191.964539 277.461639,191.310181 284.059540,193.530884 
	C301.498047,199.400238 314.957855,218.063629 314.988617,236.520752 
	C315.022736,256.994720 315.121338,277.470093 314.903961,297.941833 
	C314.853516,302.692230 313.729462,307.446289 312.915039,312.166870 
	C312.528687,314.405975 311.750885,316.291382 308.577148,315.334381 
	C305.908966,314.529785 304.724060,313.530975 305.220734,310.447815 
	C306.085114,305.082153 306.864227,299.638458 306.923950,294.219147 
	C307.127502,275.744812 307.178711,257.264099 306.888916,238.792084 
	C306.807007,233.573410 305.360077,228.376160 304.353729,222.827362 
z"/>
<path fill="#4C6971" opacity="1.000000" stroke="none" 
	d="
M244.324966,206.233917 
	C232.775223,215.918243 227.922577,227.920639 228.900314,242.637238 
	C229.439972,250.759949 228.961929,258.948730 228.994354,267.107513 
	C229.005371,269.876495 228.651917,271.982147 225.023865,271.988403 
	C221.430054,271.994568 220.872070,269.959686 221.025391,267.155273 
	C221.803223,252.927414 219.172897,238.567062 222.916550,224.446671 
	C227.281219,207.983932 244.006577,193.181137 260.875427,191.108002 
	C261.697815,191.006943 262.538544,191.025162 263.370148,191.035141 
	C265.587830,191.061813 267.794800,190.969925 267.928101,194.195602 
	C268.047577,197.086121 266.752197,198.778198 263.985321,198.854675 
	C256.684143,199.056458 250.622925,202.441284 244.324966,206.233917 
z"/>
<path fill="#4C6971" opacity="1.000000" stroke="none" 
	d="
M297.971252,297.559937 
	C296.438507,306.933563 292.002380,310.859528 283.241669,310.983246 
	C280.077240,311.027924 276.911652,311.002258 273.746704,310.987366 
	C270.882935,310.973907 267.937439,311.338593 268.017151,306.875641 
	C268.098938,302.295074 271.289062,303.113220 273.993805,303.026947 
	C276.822937,302.936676 279.657684,303.036530 282.488617,302.982422 
	C288.356567,302.870331 289.932739,301.390076 289.969666,295.592743 
	C290.044983,283.765991 289.899872,271.936340 290.138580,260.113800 
	C290.172424,258.436737 291.504150,255.783463 292.829773,255.333374 
	C296.074860,254.231552 298.065613,255.699371 298.024292,259.630707 
	C297.893066,272.122772 297.979248,284.617096 297.971252,297.559937 
z"/>
<path fill="#4C6971" opacity="1.000000" stroke="none" 
	d="
M236.766205,333.259216 
	C227.969299,325.641052 223.476273,316.042480 221.276443,305.210205 
	C220.309158,300.447052 222.027954,298.155029 226.034134,299.279236 
	C227.314026,299.638397 228.684219,301.864258 228.923843,303.405396 
	C231.471786,319.792603 243.430222,333.061554 259.280151,336.542725 
	C262.488495,337.247375 265.856781,337.854065 269.097382,337.649780 
	C275.677551,337.234985 275.662354,336.993866 276.468781,344.279907 
	C261.589142,346.803131 248.415283,343.615417 236.766205,333.259216 
z"/>
<path fill="#4C6971" opacity="1.000000" stroke="none" 
	d="
M268.180237,319.999695 
	C271.811584,320.041138 275.032715,319.745758 278.101318,320.297974 
	C279.228058,320.500763 280.720642,322.709473 280.719910,324.002411 
	C280.719147,325.294983 279.126648,327.649963 278.117493,327.713196 
	C268.654602,328.306152 259.283539,328.671783 250.863571,322.618561 
	C241.217270,315.683685 234.926620,299.826447 238.316254,288.556305 
	C238.655975,287.426758 240.949539,286.300964 242.365540,286.263000 
	C243.506851,286.232422 245.533539,287.714020 245.699783,288.758392 
	C246.191681,291.848114 245.954376,295.053619 246.006088,298.213776 
	C246.212006,310.794586 255.132843,319.748230 268.180237,319.999695 
z"/>
<path fill="#4C6971" opacity="1.000000" stroke="none" 
	d="
M265.932892,215.998383 
	C263.460815,215.989014 261.463684,215.929977 259.469543,215.982788 
	C256.766541,216.054367 255.028641,215.332077 255.020721,212.109344 
	C255.013229,209.054764 256.377869,208.089447 259.249573,207.994614 
	C268.470306,207.690140 277.513672,207.790619 285.430695,213.661728 
	C295.341034,221.011017 298.600006,231.138916 297.750153,242.901474 
	C297.671631,243.987839 295.385620,245.791946 294.245087,245.703812 
	C292.797089,245.591919 290.575073,244.098831 290.273712,242.825668 
	C289.559570,239.808762 290.199799,236.481232 289.551971,233.436859 
	C287.062927,221.739929 277.100739,214.801346 265.932892,215.998383 
z"/>
<path fill="#4C6971" opacity="1.000000" stroke="none" 
	d="
M259.848999,297.892456 
	C256.193909,298.258789 254.968185,296.743713 254.996857,293.579559 
	C255.085602,283.787750 255.071487,273.994476 255.010925,264.202301 
	C254.992920,261.290283 256.129425,259.981659 259.144501,260.029297 
	C261.939331,260.073425 262.981567,261.344818 262.972076,263.993195 
	C262.936371,273.951508 263.061035,283.912323 262.841919,293.865936 
	C262.812195,295.216461 261.171173,296.531555 259.848999,297.892456 
z"/>
<path fill="#4C6971" opacity="1.000000" stroke="none" 
	d="
M301.912476,324.326050 
	C304.658691,325.752563 305.466034,327.350983 303.050354,329.391174 
	C299.017578,332.797089 295.023987,336.271820 290.751862,339.354462 
	C289.807007,340.036255 286.670319,339.613220 286.439972,338.993561 
	C285.722565,337.064026 283.090881,334.882019 286.646149,332.642517 
	C290.240936,330.378113 293.474792,327.508789 296.716400,324.729095 
	C298.352112,323.326477 299.708618,321.940094 301.912476,324.326050 
z"/>
<path fill="#4C6971" opacity="1.000000" stroke="none" 
	d="
M228.901611,284.168030 
	C229.139587,287.329132 228.278564,289.398468 225.146286,288.825317 
	C223.705536,288.561737 221.524017,287.341980 221.358688,286.291382 
	C221.113724,284.734711 221.962433,281.903198 223.064575,281.477966 
	C225.061432,280.707458 228.175171,279.926117 228.901611,284.168030 
z"/>
<path fill="#4C6971" opacity="1.000000" stroke="none" 
	d="
M262.792999,245.282166 
	C261.912384,247.089081 261.223999,249.236008 259.944336,249.680450 
	C258.716553,250.106857 256.293579,249.187317 255.489334,248.071243 
	C254.851944,247.186752 255.868637,245.110275 256.150879,243.563080 
	C258.342804,244.001328 260.534760,244.439575 262.792999,245.282166 
z"/>
<path fill="#4C6971" opacity="1.000000" stroke="none" 
	d="
M1203.104980,270.923309 
	C1205.840820,271.303589 1208.290771,271.250214 1210.380859,272.091461 
	C1213.354858,273.288483 1217.775513,274.572815 1218.528931,276.835297 
	C1220.073975,281.474976 1219.332886,286.335205 1214.365479,289.949707 
	C1204.152466,297.381195 1193.321289,302.528168 1180.392212,301.959076 
	C1169.633423,301.485596 1162.677490,294.847595 1163.026367,285.514526 
	C1163.270630,278.981750 1166.868408,274.127075 1173.601929,272.048157 
	C1183.146851,269.101318 1192.896973,269.399475 1203.104980,270.923309 
z"/>
<path fill="#4C6971" opacity="1.000000" stroke="none" 
	d="
M1432.429688,237.328217 
	C1445.746826,230.268173 1458.716064,229.655121 1471.414673,237.742188 
	C1477.495972,241.615051 1480.473022,247.589645 1481.740479,255.316284 
	C1461.336060,255.316284 1441.232544,255.316284 1420.539062,255.316284 
	C1422.244019,247.782364 1425.507324,241.617905 1432.429688,237.328217 
z"/>
<path fill="#4C6971" opacity="1.000000" stroke="none" 
	d="
M369.390991,501.305481 
	C365.675812,504.263702 362.440338,507.449280 358.582611,509.411469 
	C355.329010,511.066376 351.327728,510.438843 349.608582,506.551971 
	C347.958130,502.820465 348.899597,499.140869 352.829071,497.214478 
	C356.378815,495.474274 360.108337,493.898468 363.934692,493.002380 
	C366.156799,492.481964 368.726074,493.443970 371.139130,493.738953 
	C370.626434,496.160187 370.113708,498.581451 369.390991,501.305481 
z"/>
<path fill="#4C6971" opacity="1.000000" stroke="none" 
	d="
M473.281769,366.378418 
	C470.242523,355.862366 478.084198,345.223236 488.582855,346.789795 
	C485.001556,355.065308 481.532288,363.081940 477.578430,372.218384 
	C475.685059,369.723022 474.548889,368.225616 473.281769,366.378418 
z"/>
<path fill="#4C6971" opacity="1.000000" stroke="none" 
	d="
M348.575775,63.608345 
	C345.036285,61.237492 343.615021,57.894360 345.988007,54.990128 
	C347.473907,53.171562 351.264160,51.930290 353.610962,52.414539 
	C357.518951,53.220947 361.193176,55.450783 364.761292,57.446873 
	C365.917450,58.093658 367.354553,60.234215 367.036224,61.076984 
	C366.488129,62.528076 364.855377,64.005432 363.340668,64.574966 
	C358.504456,66.393387 353.644440,65.664619 348.575775,63.608345 
z"/>
<path fill="#4C6971" opacity="1.000000" stroke="none" 
	d="
M503.115204,183.044525 
	C504.762329,188.124756 503.431763,191.766266 498.535431,195.170639 
	C495.311249,187.521484 492.280334,180.330872 489.184326,172.985825 
	C496.161835,171.886520 499.718719,174.527679 503.115204,183.044525 
z"/>
</svg>